<svg xmlns="http://www.w3.org/2000/svg" xmlns:xlink="http://www.w3.org/1999/xlink" width="1920" zoomAndPan="magnify" viewBox="0 0 1440 809.999993" height="1080" preserveAspectRatio="xMidYMid meet" version="1.0"><defs><clipPath id="e407b544c6"><path d="M 0 664.617188 L 110.765625 664.617188 L 110.765625 775.382812 L 0 775.382812 Z M 0 664.617188 " clip-rule="nonzero"/></clipPath><clipPath id="8a7ea33165"><path d="M 0 683.367188 L 0 756.632812 C 0 766.988281 8.394531 775.382812 18.75 775.382812 L 92.019531 775.382812 C 102.375 775.382812 110.769531 766.988281 110.769531 756.632812 L 110.769531 683.367188 C 110.769531 673.011719 102.375 664.617188 92.019531 664.617188 L 18.75 664.617188 C 8.394531 664.617188 0 673.011719 0 683.367188 Z M 0 683.367188 " clip-rule="nonzero"/></clipPath><clipPath id="2b1b6718c8"><path d="M 0 443.078125 L 110.765625 443.078125 L 110.765625 553.84375 L 0 553.84375 Z M 0 443.078125 " clip-rule="nonzero"/></clipPath><clipPath id="7d2aa254d4"><path d="M 0 461.828125 L 0 535.097656 C 0 545.453125 8.394531 553.847656 18.75 553.847656 L 92.019531 553.847656 C 102.375 553.847656 110.769531 545.453125 110.769531 535.097656 L 110.769531 461.828125 C 110.769531 451.472656 102.375 443.078125 92.019531 443.078125 L 18.75 443.078125 C 8.394531 443.078125 0 451.472656 0 461.828125 Z M 0 461.828125 " clip-rule="nonzero"/></clipPath><clipPath id="fa8bcd646c"><path d="M 110.769531 553.847656 L 221.769531 553.847656 L 221.769531 664.847656 L 110.769531 664.847656 Z M 110.769531 553.847656 " clip-rule="nonzero"/></clipPath><clipPath id="239676ec37"><path d="M 110.769531 572.597656 L 110.769531 645.867188 C 110.769531 656.222656 119.164062 664.617188 129.519531 664.617188 L 202.789062 664.617188 C 213.144531 664.617188 221.539062 656.222656 221.539062 645.867188 L 221.539062 572.597656 C 221.539062 562.242188 213.144531 553.847656 202.789062 553.847656 L 129.519531 553.847656 C 119.164062 553.847656 110.769531 562.242188 110.769531 572.597656 Z M 110.769531 572.597656 " clip-rule="nonzero"/></clipPath><clipPath id="26fa87a518"><path d="M 221.539062 664.617188 L 332.304688 664.617188 L 332.304688 775.382812 L 221.539062 775.382812 Z M 221.539062 664.617188 " clip-rule="nonzero"/></clipPath><clipPath id="3cd4f424f9"><path d="M 221.539062 683.367188 L 221.539062 756.632812 C 221.539062 766.988281 229.933594 775.382812 240.289062 775.382812 L 313.558594 775.382812 C 323.914062 775.382812 332.308594 766.988281 332.308594 756.632812 L 332.308594 683.367188 C 332.308594 673.011719 323.914062 664.617188 313.558594 664.617188 L 240.289062 664.617188 C 229.933594 664.617188 221.539062 673.011719 221.539062 683.367188 Z M 221.539062 683.367188 " clip-rule="nonzero"/></clipPath><clipPath id="89ee1fc8e0"><path d="M 221.539062 443.078125 L 332.304688 443.078125 L 332.304688 553.84375 L 221.539062 553.84375 Z M 221.539062 443.078125 " clip-rule="nonzero"/></clipPath><clipPath id="841723a85d"><path d="M 221.539062 461.828125 L 221.539062 535.097656 C 221.539062 545.453125 229.933594 553.847656 240.289062 553.847656 L 313.558594 553.847656 C 323.914062 553.847656 332.308594 545.453125 332.308594 535.097656 L 332.308594 461.828125 C 332.308594 451.472656 323.914062 443.078125 313.558594 443.078125 L 240.289062 443.078125 C 229.933594 443.078125 221.539062 451.472656 221.539062 461.828125 Z M 221.539062 461.828125 " clip-rule="nonzero"/></clipPath><clipPath id="0c660eff64"><path d="M 332.308594 553.847656 L 443.308594 553.847656 L 443.308594 664.847656 L 332.308594 664.847656 Z M 332.308594 553.847656 " clip-rule="nonzero"/></clipPath><clipPath id="8d35e80bc1"><path d="M 332.308594 572.597656 L 332.308594 645.867188 C 332.308594 656.222656 340.703125 664.617188 351.058594 664.617188 L 424.328125 664.617188 C 434.683594 664.617188 443.078125 656.222656 443.078125 645.867188 L 443.078125 572.597656 C 443.078125 562.242188 434.683594 553.847656 424.328125 553.847656 L 351.058594 553.847656 C 340.703125 553.847656 332.308594 562.242188 332.308594 572.597656 Z M 332.308594 572.597656 " clip-rule="nonzero"/></clipPath><clipPath id="25a38d5e91"><path d="M 443.078125 664.617188 L 553.84375 664.617188 L 553.84375 775.382812 L 443.078125 775.382812 Z M 443.078125 664.617188 " clip-rule="nonzero"/></clipPath><clipPath id="44e50f9c0d"><path d="M 443.078125 683.367188 L 443.078125 756.632812 C 443.078125 766.988281 451.472656 775.382812 461.828125 775.382812 L 535.097656 775.382812 C 545.453125 775.382812 553.847656 766.988281 553.847656 756.632812 L 553.847656 683.367188 C 553.847656 673.011719 545.453125 664.617188 535.097656 664.617188 L 461.828125 664.617188 C 451.472656 664.617188 443.078125 673.011719 443.078125 683.367188 Z M 443.078125 683.367188 " clip-rule="nonzero"/></clipPath><clipPath id="4a69686636"><path d="M 443.078125 443.078125 L 553.84375 443.078125 L 553.84375 553.84375 L 443.078125 553.84375 Z M 443.078125 443.078125 " clip-rule="nonzero"/></clipPath><clipPath id="cf6ace2cf5"><path d="M 443.078125 461.828125 L 443.078125 535.097656 C 443.078125 545.453125 451.472656 553.847656 461.828125 553.847656 L 535.097656 553.847656 C 545.453125 553.847656 553.847656 545.453125 553.847656 535.097656 L 553.847656 461.828125 C 553.847656 451.472656 545.453125 443.078125 535.097656 443.078125 L 461.828125 443.078125 C 451.472656 443.078125 443.078125 451.472656 443.078125 461.828125 Z M 443.078125 461.828125 " clip-rule="nonzero"/></clipPath><clipPath id="ed96559cf9"><path d="M 553.847656 553.847656 L 664.847656 553.847656 L 664.847656 664.847656 L 553.847656 664.847656 Z M 553.847656 553.847656 " clip-rule="nonzero"/></clipPath><clipPath id="69c7d463a1"><path d="M 553.847656 572.597656 L 553.847656 645.867188 C 553.847656 656.222656 562.242188 664.617188 572.597656 664.617188 L 645.867188 664.617188 C 656.222656 664.617188 664.617188 656.222656 664.617188 645.867188 L 664.617188 572.597656 C 664.617188 562.242188 656.222656 553.847656 645.867188 553.847656 L 572.597656 553.847656 C 562.242188 553.847656 553.847656 562.242188 553.847656 572.597656 Z M 553.847656 572.597656 " clip-rule="nonzero"/></clipPath><clipPath id="101b1753c0"><path d="M 664.617188 664.617188 L 775.382812 664.617188 L 775.382812 775.382812 L 664.617188 775.382812 Z M 664.617188 664.617188 " clip-rule="nonzero"/></clipPath><clipPath id="6316ed675a"><path d="M 664.617188 683.367188 L 664.617188 756.632812 C 664.617188 766.988281 673.011719 775.382812 683.367188 775.382812 L 756.632812 775.382812 C 766.988281 775.382812 775.382812 766.988281 775.382812 756.632812 L 775.382812 683.367188 C 775.382812 673.011719 766.988281 664.617188 756.632812 664.617188 L 683.367188 664.617188 C 673.011719 664.617188 664.617188 673.011719 664.617188 683.367188 Z M 664.617188 683.367188 " clip-rule="nonzero"/></clipPath><clipPath id="c53b5c1a49"><path d="M 664.617188 443.078125 L 775.382812 443.078125 L 775.382812 553.84375 L 664.617188 553.84375 Z M 664.617188 443.078125 " clip-rule="nonzero"/></clipPath><clipPath id="b9770dd358"><path d="M 664.617188 461.828125 L 664.617188 535.097656 C 664.617188 545.453125 673.011719 553.847656 683.367188 553.847656 L 756.632812 553.847656 C 766.988281 553.847656 775.382812 545.453125 775.382812 535.097656 L 775.382812 461.828125 C 775.382812 451.472656 766.988281 443.078125 756.632812 443.078125 L 683.367188 443.078125 C 673.011719 443.078125 664.617188 451.472656 664.617188 461.828125 Z M 664.617188 461.828125 " clip-rule="nonzero"/></clipPath><clipPath id="766c51bee1"><path d="M 775.382812 553.847656 L 886.382812 553.847656 L 886.382812 664.847656 L 775.382812 664.847656 Z M 775.382812 553.847656 " clip-rule="nonzero"/></clipPath><clipPath id="a6556a5c48"><path d="M 775.382812 572.597656 L 775.382812 645.867188 C 775.382812 656.222656 783.777344 664.617188 794.132812 664.617188 L 867.402344 664.617188 C 877.757812 664.617188 886.152344 656.222656 886.152344 645.867188 L 886.152344 572.597656 C 886.152344 562.242188 877.757812 553.847656 867.402344 553.847656 L 794.132812 553.847656 C 783.777344 553.847656 775.382812 562.242188 775.382812 572.597656 Z M 775.382812 572.597656 " clip-rule="nonzero"/></clipPath><clipPath id="2f6567026b"><path d="M 886.152344 664.617188 L 996.917969 664.617188 L 996.917969 775.382812 L 886.152344 775.382812 Z M 886.152344 664.617188 " clip-rule="nonzero"/></clipPath><clipPath id="a58292a3ff"><path d="M 886.152344 683.367188 L 886.152344 756.632812 C 886.152344 766.988281 894.546875 775.382812 904.902344 775.382812 L 978.171875 775.382812 C 988.527344 775.382812 996.921875 766.988281 996.921875 756.632812 L 996.921875 683.367188 C 996.921875 673.011719 988.527344 664.617188 978.171875 664.617188 L 904.902344 664.617188 C 894.546875 664.617188 886.152344 673.011719 886.152344 683.367188 Z M 886.152344 683.367188 " clip-rule="nonzero"/></clipPath><clipPath id="b1a721c390"><path d="M 886.152344 443.078125 L 996.917969 443.078125 L 996.917969 553.84375 L 886.152344 553.84375 Z M 886.152344 443.078125 " clip-rule="nonzero"/></clipPath><clipPath id="d3a0a37101"><path d="M 886.152344 461.828125 L 886.152344 535.097656 C 886.152344 545.453125 894.546875 553.847656 904.902344 553.847656 L 978.171875 553.847656 C 988.527344 553.847656 996.921875 545.453125 996.921875 535.097656 L 996.921875 461.828125 C 996.921875 451.472656 988.527344 443.078125 978.171875 443.078125 L 904.902344 443.078125 C 894.546875 443.078125 886.152344 451.472656 886.152344 461.828125 Z M 886.152344 461.828125 " clip-rule="nonzero"/></clipPath><clipPath id="09216074c1"><path d="M 996.921875 553.847656 L 1107.921875 553.847656 L 1107.921875 664.847656 L 996.921875 664.847656 Z M 996.921875 553.847656 " clip-rule="nonzero"/></clipPath><clipPath id="a09280307c"><path d="M 996.921875 572.597656 L 996.921875 645.867188 C 996.921875 656.222656 1005.316406 664.617188 1015.671875 664.617188 L 1088.941406 664.617188 C 1099.296875 664.617188 1107.691406 656.222656 1107.691406 645.867188 L 1107.691406 572.597656 C 1107.691406 562.242188 1099.296875 553.847656 1088.941406 553.847656 L 1015.671875 553.847656 C 1005.316406 553.847656 996.921875 562.242188 996.921875 572.597656 Z M 996.921875 572.597656 " clip-rule="nonzero"/></clipPath><clipPath id="00195b33b5"><path d="M 1107.691406 664.617188 L 1218.457031 664.617188 L 1218.457031 775.382812 L 1107.691406 775.382812 Z M 1107.691406 664.617188 " clip-rule="nonzero"/></clipPath><clipPath id="45defcc298"><path d="M 1107.691406 683.367188 L 1107.691406 756.632812 C 1107.691406 766.988281 1116.085938 775.382812 1126.441406 775.382812 L 1199.710938 775.382812 C 1210.066406 775.382812 1218.460938 766.988281 1218.460938 756.632812 L 1218.460938 683.367188 C 1218.460938 673.011719 1210.066406 664.617188 1199.710938 664.617188 L 1126.441406 664.617188 C 1116.085938 664.617188 1107.691406 673.011719 1107.691406 683.367188 Z M 1107.691406 683.367188 " clip-rule="nonzero"/></clipPath><clipPath id="291a9d8014"><path d="M 1107.691406 443.078125 L 1218.457031 443.078125 L 1218.457031 553.84375 L 1107.691406 553.84375 Z M 1107.691406 443.078125 " clip-rule="nonzero"/></clipPath><clipPath id="b0c0cc2de6"><path d="M 1107.691406 461.828125 L 1107.691406 535.097656 C 1107.691406 545.453125 1116.085938 553.847656 1126.441406 553.847656 L 1199.710938 553.847656 C 1210.066406 553.847656 1218.460938 545.453125 1218.460938 535.097656 L 1218.460938 461.828125 C 1218.460938 451.472656 1210.066406 443.078125 1199.710938 443.078125 L 1126.441406 443.078125 C 1116.085938 443.078125 1107.691406 451.472656 1107.691406 461.828125 Z M 1107.691406 461.828125 " clip-rule="nonzero"/></clipPath><clipPath id="a9d57919a5"><path d="M 1218.460938 553.847656 L 1329.460938 553.847656 L 1329.460938 664.847656 L 1218.460938 664.847656 Z M 1218.460938 553.847656 " clip-rule="nonzero"/></clipPath><clipPath id="c508c70fef"><path d="M 1218.460938 572.597656 L 1218.460938 645.867188 C 1218.460938 656.222656 1226.855469 664.617188 1237.210938 664.617188 L 1310.480469 664.617188 C 1320.835938 664.617188 1329.230469 656.222656 1329.230469 645.867188 L 1329.230469 572.597656 C 1329.230469 562.242188 1320.835938 553.847656 1310.480469 553.847656 L 1237.210938 553.847656 C 1226.855469 553.847656 1218.460938 562.242188 1218.460938 572.597656 Z M 1218.460938 572.597656 " clip-rule="nonzero"/></clipPath><clipPath id="1929c487fe"><path d="M 1329.230469 664.617188 L 1439.996094 664.617188 L 1439.996094 775.382812 L 1329.230469 775.382812 Z M 1329.230469 664.617188 " clip-rule="nonzero"/></clipPath><clipPath id="0fd46ed001"><path d="M 1329.230469 683.367188 L 1329.230469 756.632812 C 1329.230469 766.988281 1337.625 775.382812 1347.980469 775.382812 L 1421.25 775.382812 C 1431.605469 775.382812 1440 766.988281 1440 756.632812 L 1440 683.367188 C 1440 673.011719 1431.605469 664.617188 1421.25 664.617188 L 1347.980469 664.617188 C 1337.625 664.617188 1329.230469 673.011719 1329.230469 683.367188 Z M 1329.230469 683.367188 " clip-rule="nonzero"/></clipPath><clipPath id="1b882f7175"><path d="M 1329.230469 443.078125 L 1439.996094 443.078125 L 1439.996094 553.84375 L 1329.230469 553.84375 Z M 1329.230469 443.078125 " clip-rule="nonzero"/></clipPath><clipPath id="8ca72a6c00"><path d="M 1329.230469 461.828125 L 1329.230469 535.097656 C 1329.230469 545.453125 1337.625 553.847656 1347.980469 553.847656 L 1421.25 553.847656 C 1431.605469 553.847656 1440 545.453125 1440 535.097656 L 1440 461.828125 C 1440 451.472656 1431.605469 443.078125 1421.25 443.078125 L 1347.980469 443.078125 C 1337.625 443.078125 1329.230469 451.472656 1329.230469 461.828125 Z M 1329.230469 461.828125 " clip-rule="nonzero"/></clipPath><clipPath id="5a85f802ae"><path d="M 0 221.539062 L 110.765625 221.539062 L 110.765625 332.304688 L 0 332.304688 Z M 0 221.539062 " clip-rule="nonzero"/></clipPath><clipPath id="8c530598d7"><path d="M 0 240.289062 L 0 313.558594 C 0 323.914062 8.394531 332.308594 18.75 332.308594 L 92.019531 332.308594 C 102.375 332.308594 110.769531 323.914062 110.769531 313.558594 L 110.769531 240.289062 C 110.769531 229.933594 102.375 221.539062 92.019531 221.539062 L 18.75 221.539062 C 8.394531 221.539062 0 229.933594 0 240.289062 Z M 0 240.289062 " clip-rule="nonzero"/></clipPath><clipPath id="7fa3c26d81"><path d="M 110.769531 332.308594 L 221.769531 332.308594 L 221.769531 443.308594 L 110.769531 443.308594 Z M 110.769531 332.308594 " clip-rule="nonzero"/></clipPath><clipPath id="34fef5942f"><path d="M 110.769531 351.058594 L 110.769531 424.328125 C 110.769531 434.683594 119.164062 443.078125 129.519531 443.078125 L 202.789062 443.078125 C 213.144531 443.078125 221.539062 434.683594 221.539062 424.328125 L 221.539062 351.058594 C 221.539062 340.703125 213.144531 332.308594 202.789062 332.308594 L 129.519531 332.308594 C 119.164062 332.308594 110.769531 340.703125 110.769531 351.058594 Z M 110.769531 351.058594 " clip-rule="nonzero"/></clipPath><clipPath id="f29ef50a27"><path d="M 110.769531 110.769531 L 221.769531 110.769531 L 221.769531 221.769531 L 110.769531 221.769531 Z M 110.769531 110.769531 " clip-rule="nonzero"/></clipPath><clipPath id="fd682b2a60"><path d="M 110.769531 129.519531 L 110.769531 202.789062 C 110.769531 213.144531 119.164062 221.539062 129.519531 221.539062 L 202.789062 221.539062 C 213.144531 221.539062 221.539062 213.144531 221.539062 202.789062 L 221.539062 129.519531 C 221.539062 119.164062 213.144531 110.769531 202.789062 110.769531 L 129.519531 110.769531 C 119.164062 110.769531 110.769531 119.164062 110.769531 129.519531 Z M 110.769531 129.519531 " clip-rule="nonzero"/></clipPath><clipPath id="648aac3d1f"><path d="M 221.539062 221.539062 L 332.304688 221.539062 L 332.304688 332.304688 L 221.539062 332.304688 Z M 221.539062 221.539062 " clip-rule="nonzero"/></clipPath><clipPath id="48c39aa6db"><path d="M 221.539062 240.289062 L 221.539062 313.558594 C 221.539062 323.914062 229.933594 332.308594 240.289062 332.308594 L 313.558594 332.308594 C 323.914062 332.308594 332.308594 323.914062 332.308594 313.558594 L 332.308594 240.289062 C 332.308594 229.933594 323.914062 221.539062 313.558594 221.539062 L 240.289062 221.539062 C 229.933594 221.539062 221.539062 229.933594 221.539062 240.289062 Z M 221.539062 240.289062 " clip-rule="nonzero"/></clipPath><clipPath id="1fd896a739"><path d="M 332.308594 332.308594 L 443.308594 332.308594 L 443.308594 443.308594 L 332.308594 443.308594 Z M 332.308594 332.308594 " clip-rule="nonzero"/></clipPath><clipPath id="eb9e7a225a"><path d="M 332.308594 351.058594 L 332.308594 424.328125 C 332.308594 434.683594 340.703125 443.078125 351.058594 443.078125 L 424.328125 443.078125 C 434.683594 443.078125 443.078125 434.683594 443.078125 424.328125 L 443.078125 351.058594 C 443.078125 340.703125 434.683594 332.308594 424.328125 332.308594 L 351.058594 332.308594 C 340.703125 332.308594 332.308594 340.703125 332.308594 351.058594 Z M 332.308594 351.058594 " clip-rule="nonzero"/></clipPath><clipPath id="cb56c296db"><path d="M 332.308594 110.769531 L 443.308594 110.769531 L 443.308594 221.769531 L 332.308594 221.769531 Z M 332.308594 110.769531 " clip-rule="nonzero"/></clipPath><clipPath id="8310846fd4"><path d="M 332.308594 129.519531 L 332.308594 202.789062 C 332.308594 213.144531 340.703125 221.539062 351.058594 221.539062 L 424.328125 221.539062 C 434.683594 221.539062 443.078125 213.144531 443.078125 202.789062 L 443.078125 129.519531 C 443.078125 119.164062 434.683594 110.769531 424.328125 110.769531 L 351.058594 110.769531 C 340.703125 110.769531 332.308594 119.164062 332.308594 129.519531 Z M 332.308594 129.519531 " clip-rule="nonzero"/></clipPath><clipPath id="d720c0fdcc"><path d="M 443.078125 221.539062 L 553.84375 221.539062 L 553.84375 332.304688 L 443.078125 332.304688 Z M 443.078125 221.539062 " clip-rule="nonzero"/></clipPath><clipPath id="1c30c0ba94"><path d="M 443.078125 240.289062 L 443.078125 313.558594 C 443.078125 323.914062 451.472656 332.308594 461.828125 332.308594 L 535.097656 332.308594 C 545.453125 332.308594 553.847656 323.914062 553.847656 313.558594 L 553.847656 240.289062 C 553.847656 229.933594 545.453125 221.539062 535.097656 221.539062 L 461.828125 221.539062 C 451.472656 221.539062 443.078125 229.933594 443.078125 240.289062 Z M 443.078125 240.289062 " clip-rule="nonzero"/></clipPath><clipPath id="69d64fcab0"><path d="M 553.847656 332.308594 L 664.847656 332.308594 L 664.847656 443.308594 L 553.847656 443.308594 Z M 553.847656 332.308594 " clip-rule="nonzero"/></clipPath><clipPath id="dc758e09a2"><path d="M 553.847656 351.058594 L 553.847656 424.328125 C 553.847656 434.683594 562.242188 443.078125 572.597656 443.078125 L 645.867188 443.078125 C 656.222656 443.078125 664.617188 434.683594 664.617188 424.328125 L 664.617188 351.058594 C 664.617188 340.703125 656.222656 332.308594 645.867188 332.308594 L 572.597656 332.308594 C 562.242188 332.308594 553.847656 340.703125 553.847656 351.058594 Z M 553.847656 351.058594 " clip-rule="nonzero"/></clipPath><clipPath id="ed6783e1ba"><path d="M 553.847656 110.769531 L 664.847656 110.769531 L 664.847656 221.769531 L 553.847656 221.769531 Z M 553.847656 110.769531 " clip-rule="nonzero"/></clipPath><clipPath id="6837c1107a"><path d="M 553.847656 129.519531 L 553.847656 202.789062 C 553.847656 213.144531 562.242188 221.539062 572.597656 221.539062 L 645.867188 221.539062 C 656.222656 221.539062 664.617188 213.144531 664.617188 202.789062 L 664.617188 129.519531 C 664.617188 119.164062 656.222656 110.769531 645.867188 110.769531 L 572.597656 110.769531 C 562.242188 110.769531 553.847656 119.164062 553.847656 129.519531 Z M 553.847656 129.519531 " clip-rule="nonzero"/></clipPath><clipPath id="dc69f4c1dc"><path d="M 664.617188 221.539062 L 775.382812 221.539062 L 775.382812 332.304688 L 664.617188 332.304688 Z M 664.617188 221.539062 " clip-rule="nonzero"/></clipPath><clipPath id="c31d6299f4"><path d="M 664.617188 240.289062 L 664.617188 313.558594 C 664.617188 323.914062 673.011719 332.308594 683.367188 332.308594 L 756.632812 332.308594 C 766.988281 332.308594 775.382812 323.914062 775.382812 313.558594 L 775.382812 240.289062 C 775.382812 229.933594 766.988281 221.539062 756.632812 221.539062 L 683.367188 221.539062 C 673.011719 221.539062 664.617188 229.933594 664.617188 240.289062 Z M 664.617188 240.289062 " clip-rule="nonzero"/></clipPath><clipPath id="4b3d1da33b"><path d="M 775.382812 332.308594 L 886.382812 332.308594 L 886.382812 443.308594 L 775.382812 443.308594 Z M 775.382812 332.308594 " clip-rule="nonzero"/></clipPath><clipPath id="4324a521c6"><path d="M 775.382812 351.058594 L 775.382812 424.328125 C 775.382812 434.683594 783.777344 443.078125 794.132812 443.078125 L 867.402344 443.078125 C 877.757812 443.078125 886.152344 434.683594 886.152344 424.328125 L 886.152344 351.058594 C 886.152344 340.703125 877.757812 332.308594 867.402344 332.308594 L 794.132812 332.308594 C 783.777344 332.308594 775.382812 340.703125 775.382812 351.058594 Z M 775.382812 351.058594 " clip-rule="nonzero"/></clipPath><clipPath id="1d4f94fa1b"><path d="M 775.382812 110.769531 L 886.382812 110.769531 L 886.382812 221.769531 L 775.382812 221.769531 Z M 775.382812 110.769531 " clip-rule="nonzero"/></clipPath><clipPath id="468319c1a8"><path d="M 775.382812 129.519531 L 775.382812 202.789062 C 775.382812 213.144531 783.777344 221.539062 794.132812 221.539062 L 867.402344 221.539062 C 877.757812 221.539062 886.152344 213.144531 886.152344 202.789062 L 886.152344 129.519531 C 886.152344 119.164062 877.757812 110.769531 867.402344 110.769531 L 794.132812 110.769531 C 783.777344 110.769531 775.382812 119.164062 775.382812 129.519531 Z M 775.382812 129.519531 " clip-rule="nonzero"/></clipPath><clipPath id="e9d6987358"><path d="M 886.152344 221.539062 L 996.917969 221.539062 L 996.917969 332.304688 L 886.152344 332.304688 Z M 886.152344 221.539062 " clip-rule="nonzero"/></clipPath><clipPath id="7449fb5c26"><path d="M 886.152344 240.289062 L 886.152344 313.558594 C 886.152344 323.914062 894.546875 332.308594 904.902344 332.308594 L 978.171875 332.308594 C 988.527344 332.308594 996.921875 323.914062 996.921875 313.558594 L 996.921875 240.289062 C 996.921875 229.933594 988.527344 221.539062 978.171875 221.539062 L 904.902344 221.539062 C 894.546875 221.539062 886.152344 229.933594 886.152344 240.289062 Z M 886.152344 240.289062 " clip-rule="nonzero"/></clipPath><clipPath id="d7efd16cc2"><path d="M 996.921875 332.308594 L 1107.921875 332.308594 L 1107.921875 443.308594 L 996.921875 443.308594 Z M 996.921875 332.308594 " clip-rule="nonzero"/></clipPath><clipPath id="e417c45834"><path d="M 996.921875 351.058594 L 996.921875 424.328125 C 996.921875 434.683594 1005.316406 443.078125 1015.671875 443.078125 L 1088.941406 443.078125 C 1099.296875 443.078125 1107.691406 434.683594 1107.691406 424.328125 L 1107.691406 351.058594 C 1107.691406 340.703125 1099.296875 332.308594 1088.941406 332.308594 L 1015.671875 332.308594 C 1005.316406 332.308594 996.921875 340.703125 996.921875 351.058594 Z M 996.921875 351.058594 " clip-rule="nonzero"/></clipPath><clipPath id="2278ccd43e"><path d="M 996.921875 110.769531 L 1107.921875 110.769531 L 1107.921875 221.769531 L 996.921875 221.769531 Z M 996.921875 110.769531 " clip-rule="nonzero"/></clipPath><clipPath id="811bcaa26d"><path d="M 996.921875 129.519531 L 996.921875 202.789062 C 996.921875 213.144531 1005.316406 221.539062 1015.671875 221.539062 L 1088.941406 221.539062 C 1099.296875 221.539062 1107.691406 213.144531 1107.691406 202.789062 L 1107.691406 129.519531 C 1107.691406 119.164062 1099.296875 110.769531 1088.941406 110.769531 L 1015.671875 110.769531 C 1005.316406 110.769531 996.921875 119.164062 996.921875 129.519531 Z M 996.921875 129.519531 " clip-rule="nonzero"/></clipPath><clipPath id="97e34b9df0"><path d="M 1107.691406 221.539062 L 1218.457031 221.539062 L 1218.457031 332.304688 L 1107.691406 332.304688 Z M 1107.691406 221.539062 " clip-rule="nonzero"/></clipPath><clipPath id="b0ccb72f55"><path d="M 1107.691406 240.289062 L 1107.691406 313.558594 C 1107.691406 323.914062 1116.085938 332.308594 1126.441406 332.308594 L 1199.710938 332.308594 C 1210.066406 332.308594 1218.460938 323.914062 1218.460938 313.558594 L 1218.460938 240.289062 C 1218.460938 229.933594 1210.066406 221.539062 1199.710938 221.539062 L 1126.441406 221.539062 C 1116.085938 221.539062 1107.691406 229.933594 1107.691406 240.289062 Z M 1107.691406 240.289062 " clip-rule="nonzero"/></clipPath><clipPath id="4e08acef8b"><path d="M 1218.460938 332.308594 L 1329.460938 332.308594 L 1329.460938 443.308594 L 1218.460938 443.308594 Z M 1218.460938 332.308594 " clip-rule="nonzero"/></clipPath><clipPath id="479749bdb3"><path d="M 1218.460938 351.058594 L 1218.460938 424.328125 C 1218.460938 434.683594 1226.855469 443.078125 1237.210938 443.078125 L 1310.480469 443.078125 C 1320.835938 443.078125 1329.230469 434.683594 1329.230469 424.328125 L 1329.230469 351.058594 C 1329.230469 340.703125 1320.835938 332.308594 1310.480469 332.308594 L 1237.210938 332.308594 C 1226.855469 332.308594 1218.460938 340.703125 1218.460938 351.058594 Z M 1218.460938 351.058594 " clip-rule="nonzero"/></clipPath><clipPath id="d27076f470"><path d="M 1218.460938 110.769531 L 1329.460938 110.769531 L 1329.460938 221.769531 L 1218.460938 221.769531 Z M 1218.460938 110.769531 " clip-rule="nonzero"/></clipPath><clipPath id="366e8b23f0"><path d="M 1218.460938 129.519531 L 1218.460938 202.789062 C 1218.460938 213.144531 1226.855469 221.539062 1237.210938 221.539062 L 1310.480469 221.539062 C 1320.835938 221.539062 1329.230469 213.144531 1329.230469 202.789062 L 1329.230469 129.519531 C 1329.230469 119.164062 1320.835938 110.769531 1310.480469 110.769531 L 1237.210938 110.769531 C 1226.855469 110.769531 1218.460938 119.164062 1218.460938 129.519531 Z M 1218.460938 129.519531 " clip-rule="nonzero"/></clipPath><clipPath id="e36707261e"><path d="M 1329.230469 221.539062 L 1439.996094 221.539062 L 1439.996094 332.304688 L 1329.230469 332.304688 Z M 1329.230469 221.539062 " clip-rule="nonzero"/></clipPath><clipPath id="66c9345968"><path d="M 1329.230469 240.289062 L 1329.230469 313.558594 C 1329.230469 323.914062 1337.625 332.308594 1347.980469 332.308594 L 1421.25 332.308594 C 1431.605469 332.308594 1440 323.914062 1440 313.558594 L 1440 240.289062 C 1440 229.933594 1431.605469 221.539062 1421.25 221.539062 L 1347.980469 221.539062 C 1337.625 221.539062 1329.230469 229.933594 1329.230469 240.289062 Z M 1329.230469 240.289062 " clip-rule="nonzero"/></clipPath><clipPath id="a5f9accf3a"><path d="M 0 0 L 110.765625 0 L 110.765625 110.765625 L 0 110.765625 Z M 0 0 " clip-rule="nonzero"/></clipPath><clipPath id="86f39c0ca0"><path d="M 0 18.75 L 0 92.019531 C 0 102.375 8.394531 110.769531 18.75 110.769531 L 92.019531 110.769531 C 102.375 110.769531 110.769531 102.375 110.769531 92.019531 L 110.769531 18.75 C 110.769531 8.394531 102.375 0 92.019531 0 L 18.75 0 C 8.394531 0 0 8.394531 0 18.75 Z M 0 18.75 " clip-rule="nonzero"/></clipPath><clipPath id="1242f61613"><path d="M 221.539062 0 L 332.304688 0 L 332.304688 110.765625 L 221.539062 110.765625 Z M 221.539062 0 " clip-rule="nonzero"/></clipPath><clipPath id="4504d802ba"><path d="M 221.539062 18.75 L 221.539062 92.019531 C 221.539062 102.375 229.933594 110.769531 240.289062 110.769531 L 313.558594 110.769531 C 323.914062 110.769531 332.308594 102.375 332.308594 92.019531 L 332.308594 18.75 C 332.308594 8.394531 323.914062 0 313.558594 0 L 240.289062 0 C 229.933594 0 221.539062 8.394531 221.539062 18.75 Z M 221.539062 18.75 " clip-rule="nonzero"/></clipPath><clipPath id="b3c1e4668b"><path d="M 443.078125 0 L 553.84375 0 L 553.84375 110.765625 L 443.078125 110.765625 Z M 443.078125 0 " clip-rule="nonzero"/></clipPath><clipPath id="10b6c859cc"><path d="M 443.078125 18.75 L 443.078125 92.019531 C 443.078125 102.375 451.472656 110.769531 461.828125 110.769531 L 535.097656 110.769531 C 545.453125 110.769531 553.847656 102.375 553.847656 92.019531 L 553.847656 18.75 C 553.847656 8.394531 545.453125 0 535.097656 0 L 461.828125 0 C 451.472656 0 443.078125 8.394531 443.078125 18.75 Z M 443.078125 18.75 " clip-rule="nonzero"/></clipPath><clipPath id="3f259ab0ec"><path d="M 664.617188 0 L 775.382812 0 L 775.382812 110.765625 L 664.617188 110.765625 Z M 664.617188 0 " clip-rule="nonzero"/></clipPath><clipPath id="e35a9bc0f2"><path d="M 664.617188 18.75 L 664.617188 92.019531 C 664.617188 102.375 673.011719 110.769531 683.367188 110.769531 L 756.632812 110.769531 C 766.988281 110.769531 775.382812 102.375 775.382812 92.019531 L 775.382812 18.75 C 775.382812 8.394531 766.988281 0 756.632812 0 L 683.367188 0 C 673.011719 0 664.617188 8.394531 664.617188 18.75 Z M 664.617188 18.75 " clip-rule="nonzero"/></clipPath><clipPath id="85034e137c"><path d="M 886.152344 0 L 996.917969 0 L 996.917969 110.765625 L 886.152344 110.765625 Z M 886.152344 0 " clip-rule="nonzero"/></clipPath><clipPath id="a52ef04f96"><path d="M 886.152344 18.75 L 886.152344 92.019531 C 886.152344 102.375 894.546875 110.769531 904.902344 110.769531 L 978.171875 110.769531 C 988.527344 110.769531 996.921875 102.375 996.921875 92.019531 L 996.921875 18.75 C 996.921875 8.394531 988.527344 0 978.171875 0 L 904.902344 0 C 894.546875 0 886.152344 8.394531 886.152344 18.75 Z M 886.152344 18.75 " clip-rule="nonzero"/></clipPath><clipPath id="344a6f9e74"><path d="M 1107.691406 0 L 1218.457031 0 L 1218.457031 110.765625 L 1107.691406 110.765625 Z M 1107.691406 0 " clip-rule="nonzero"/></clipPath><clipPath id="f431daeeea"><path d="M 1107.691406 18.75 L 1107.691406 92.019531 C 1107.691406 102.375 1116.085938 110.769531 1126.441406 110.769531 L 1199.710938 110.769531 C 1210.066406 110.769531 1218.460938 102.375 1218.460938 92.019531 L 1218.460938 18.75 C 1218.460938 8.394531 1210.066406 0 1199.710938 0 L 1126.441406 0 C 1116.085938 0 1107.691406 8.394531 1107.691406 18.75 Z M 1107.691406 18.75 " clip-rule="nonzero"/></clipPath><clipPath id="4d2a05d4c7"><path d="M 1329.230469 0 L 1439.996094 0 L 1439.996094 110.765625 L 1329.230469 110.765625 Z M 1329.230469 0 " clip-rule="nonzero"/></clipPath><clipPath id="71de97d5f8"><path d="M 1329.230469 18.75 L 1329.230469 92.019531 C 1329.230469 102.375 1337.625 110.769531 1347.980469 110.769531 L 1421.25 110.769531 C 1431.605469 110.769531 1440 102.375 1440 92.019531 L 1440 18.75 C 1440 8.394531 1431.605469 0 1421.25 0 L 1347.980469 0 C 1337.625 0 1329.230469 8.394531 1329.230469 18.75 Z M 1329.230469 18.75 " clip-rule="nonzero"/></clipPath><clipPath id="fe8efaa63d"><path d="M 0 775.382812 L 1440 775.382812 L 1440 810 L 0 810 Z M 0 775.382812 " clip-rule="nonzero"/></clipPath><clipPath id="d80727fd21"><path d="M 0 759.480469 L 35.207031 759.480469 L 35.207031 810 L 0 810 Z M 0 759.480469 " clip-rule="nonzero"/></clipPath><clipPath id="c66e8b6e99"><path d="M 1404.460938 759.480469 L 1440 759.480469 L 1440 810 L 1404.460938 810 Z M 1404.460938 759.480469 " clip-rule="nonzero"/></clipPath><clipPath id="c0760053bc"><path d="M 1422.644531 0 L 1440 0 L 1440 16.039062 L 1422.644531 16.039062 Z M 1422.644531 0 " clip-rule="nonzero"/></clipPath><clipPath id="1f12b0ea7e"><path d="M 0 0 L 15.480469 0 L 15.480469 16.039062 L 0 16.039062 Z M 0 0 " clip-rule="nonzero"/></clipPath><clipPath id="8bc91dfcdd"><path d="M 0 768.171875 L 1440 768.171875 L 1440 810 L 0 810 Z M 0 768.171875 " clip-rule="nonzero"/></clipPath></defs><rect x="-144" width="1728" fill="#ffffff" y="-80.999999" height="971.999992" fill-opacity="1"/><rect x="-144" width="1728" fill="#ffffff" y="-80.999999" height="971.999992" fill-opacity="1"/><g clip-path="url(#e407b544c6)"><g clip-path="url(#8a7ea33165)"><path fill="#346a48" d="M 47.328125 775.382812 C 47.328125 748.945312 47.328125 722.511719 47.328125 696.085938 L 15.605469 696.085938 L 15.605469 680.226562 L 63.183594 680.226562 C 63.183594 690.804688 63.183594 701.371094 63.183594 711.949219 L 94.90625 711.949219 L 94.90625 727.808594 L 63.183594 727.808594 C 63.183594 727.808594 63.183594 771.429688 63.183594 775.386719 L 79.042969 775.386719 L 79.042969 743.664062 L 94.902344 743.664062 L 94.902344 775.386719 L 110.757812 775.386719 L 110.757812 664.367188 C 73.753906 664.367188 36.746094 664.367188 -0.257812 664.367188 C -0.257812 680.226562 -0.257812 696.089844 -0.257812 711.949219 L 31.464844 711.949219 L 31.464844 727.808594 L -0.253906 727.808594 C -0.253906 743.664062 -0.253906 759.527344 -0.253906 775.386719 L 47.328125 775.386719 Z M 94.90625 696.085938 L 79.050781 696.085938 L 79.050781 680.226562 L 94.90625 680.226562 Z M 31.46875 743.664062 L 31.46875 759.523438 L 15.613281 759.523438 L 15.613281 743.664062 Z M 31.46875 743.664062 " fill-opacity="1" fill-rule="evenodd"/></g></g><g clip-path="url(#2b1b6718c8)"><g clip-path="url(#7d2aa254d4)"><path fill="#346a48" d="M 47.328125 553.84375 C 47.328125 527.410156 47.328125 500.972656 47.328125 474.546875 L 15.605469 474.546875 L 15.605469 458.6875 L 63.183594 458.6875 C 63.183594 469.265625 63.183594 479.835938 63.183594 490.410156 L 94.90625 490.410156 L 94.90625 506.269531 L 63.183594 506.269531 C 63.183594 506.269531 63.183594 549.890625 63.183594 553.847656 L 79.042969 553.847656 L 79.042969 522.125 L 94.902344 522.125 L 94.902344 553.847656 L 110.757812 553.847656 L 110.757812 442.832031 C 73.753906 442.832031 36.746094 442.832031 -0.257812 442.832031 C -0.257812 458.6875 -0.257812 474.550781 -0.257812 490.410156 L 31.464844 490.410156 L 31.464844 506.269531 L -0.253906 506.269531 C -0.253906 522.125 -0.253906 537.992188 -0.253906 553.847656 L 47.328125 553.847656 Z M 94.90625 474.546875 L 79.050781 474.546875 L 79.050781 458.6875 L 94.90625 458.6875 Z M 31.46875 522.125 L 31.46875 537.984375 L 15.613281 537.984375 L 15.613281 522.125 Z M 31.46875 522.125 " fill-opacity="1" fill-rule="evenodd"/></g></g><g clip-path="url(#fa8bcd646c)"><g clip-path="url(#239676ec37)"><path fill="#346a48" d="M 174.207031 553.847656 C 174.207031 580.28125 174.207031 606.714844 174.207031 633.140625 L 205.929688 633.140625 L 205.929688 649 L 158.347656 649 C 158.347656 638.425781 158.347656 627.855469 158.347656 617.277344 L 126.628906 617.277344 L 126.628906 601.421875 L 158.347656 601.421875 C 158.347656 601.421875 158.347656 557.796875 158.347656 553.839844 L 142.492188 553.839844 L 142.492188 585.5625 L 126.632812 585.5625 L 126.632812 553.839844 L 110.777344 553.839844 L 110.777344 664.859375 C 147.78125 664.859375 184.789062 664.859375 221.792969 664.859375 C 221.792969 649 221.792969 633.136719 221.792969 617.277344 L 190.070312 617.277344 L 190.070312 601.421875 L 221.789062 601.421875 C 221.789062 585.5625 221.789062 569.699219 221.789062 553.839844 L 174.207031 553.839844 Z M 126.628906 633.140625 L 142.484375 633.140625 L 142.484375 649 L 126.628906 649 Z M 190.066406 585.5625 L 190.066406 569.703125 L 205.921875 569.703125 L 205.921875 585.5625 Z M 190.066406 585.5625 " fill-opacity="1" fill-rule="evenodd"/></g></g><g clip-path="url(#26fa87a518)"><g clip-path="url(#3cd4f424f9)"><path fill="#346a48" d="M 268.867188 775.382812 C 268.867188 748.945312 268.867188 722.511719 268.867188 696.085938 L 237.144531 696.085938 L 237.144531 680.226562 L 284.722656 680.226562 C 284.722656 690.804688 284.722656 701.371094 284.722656 711.949219 L 316.445312 711.949219 L 316.445312 727.808594 L 284.722656 727.808594 C 284.722656 727.808594 284.722656 771.429688 284.722656 775.386719 L 300.582031 775.386719 L 300.582031 743.664062 L 316.441406 743.664062 L 316.441406 775.386719 L 332.296875 775.386719 L 332.296875 664.367188 C 295.292969 664.367188 258.285156 664.367188 221.28125 664.367188 C 221.28125 680.226562 221.28125 696.089844 221.28125 711.949219 L 253 711.949219 L 253 727.808594 L 221.285156 727.808594 C 221.285156 743.664062 221.285156 759.527344 221.285156 775.386719 L 268.867188 775.386719 Z M 316.445312 696.085938 L 300.589844 696.085938 L 300.589844 680.226562 L 316.445312 680.226562 Z M 253.007812 743.664062 L 253.007812 759.523438 L 237.148438 759.523438 L 237.148438 743.664062 Z M 253.007812 743.664062 " fill-opacity="1" fill-rule="evenodd"/></g></g><g clip-path="url(#89ee1fc8e0)"><g clip-path="url(#841723a85d)"><path fill="#346a48" d="M 268.867188 553.84375 C 268.867188 527.410156 268.867188 500.972656 268.867188 474.546875 L 237.144531 474.546875 L 237.144531 458.6875 L 284.722656 458.6875 C 284.722656 469.265625 284.722656 479.835938 284.722656 490.410156 L 316.445312 490.410156 L 316.445312 506.269531 L 284.722656 506.269531 C 284.722656 506.269531 284.722656 549.890625 284.722656 553.847656 L 300.582031 553.847656 L 300.582031 522.125 L 316.441406 522.125 L 316.441406 553.847656 L 332.296875 553.847656 L 332.296875 442.832031 C 295.292969 442.832031 258.285156 442.832031 221.28125 442.832031 C 221.28125 458.6875 221.28125 474.550781 221.28125 490.410156 L 253 490.410156 L 253 506.269531 L 221.285156 506.269531 C 221.285156 522.125 221.285156 537.992188 221.285156 553.847656 L 268.867188 553.847656 Z M 316.445312 474.546875 L 300.589844 474.546875 L 300.589844 458.6875 L 316.445312 458.6875 Z M 253.007812 522.125 L 253.007812 537.984375 L 237.148438 537.984375 L 237.148438 522.125 Z M 253.007812 522.125 " fill-opacity="1" fill-rule="evenodd"/></g></g><g clip-path="url(#0c660eff64)"><g clip-path="url(#8d35e80bc1)"><path fill="#346a48" d="M 395.746094 553.847656 C 395.746094 580.28125 395.746094 606.714844 395.746094 633.140625 L 427.46875 633.140625 L 427.46875 649 L 379.886719 649 C 379.886719 638.425781 379.886719 627.855469 379.886719 617.277344 L 348.164062 617.277344 L 348.164062 601.421875 L 379.886719 601.421875 C 379.886719 601.421875 379.886719 557.796875 379.886719 553.839844 L 364.03125 553.839844 L 364.03125 585.5625 L 348.171875 585.5625 L 348.171875 553.839844 L 332.3125 553.839844 L 332.3125 664.859375 C 369.316406 664.859375 406.328125 664.859375 443.332031 664.859375 C 443.332031 649 443.332031 633.136719 443.332031 617.277344 L 411.609375 617.277344 L 411.609375 601.421875 L 443.328125 601.421875 C 443.328125 585.5625 443.328125 569.699219 443.328125 553.839844 L 395.746094 553.839844 Z M 348.164062 633.140625 L 364.023438 633.140625 L 364.023438 649 L 348.164062 649 Z M 411.605469 585.5625 L 411.605469 569.703125 L 427.460938 569.703125 L 427.460938 585.5625 Z M 411.605469 585.5625 " fill-opacity="1" fill-rule="evenodd"/></g></g><g clip-path="url(#25a38d5e91)"><g clip-path="url(#44e50f9c0d)"><path fill="#346a48" d="M 490.402344 775.382812 C 490.402344 748.945312 490.402344 722.511719 490.402344 696.085938 L 458.683594 696.085938 L 458.683594 680.226562 L 506.261719 680.226562 C 506.261719 690.804688 506.261719 701.371094 506.261719 711.949219 L 537.984375 711.949219 L 537.984375 727.808594 L 506.261719 727.808594 C 506.261719 727.808594 506.261719 771.429688 506.261719 775.386719 L 522.121094 775.386719 L 522.121094 743.664062 L 537.976562 743.664062 L 537.976562 775.386719 L 553.835938 775.386719 L 553.835938 664.367188 C 516.832031 664.367188 479.820312 664.367188 442.816406 664.367188 C 442.816406 680.226562 442.816406 696.089844 442.816406 711.949219 L 474.539062 711.949219 L 474.539062 727.808594 L 442.824219 727.808594 C 442.824219 743.664062 442.824219 759.527344 442.824219 775.386719 L 490.402344 775.386719 Z M 537.984375 696.085938 L 522.125 696.085938 L 522.125 680.226562 L 537.984375 680.226562 Z M 474.546875 743.664062 L 474.546875 759.523438 L 458.6875 759.523438 L 458.6875 743.664062 Z M 474.546875 743.664062 " fill-opacity="1" fill-rule="evenodd"/></g></g><g clip-path="url(#4a69686636)"><g clip-path="url(#cf6ace2cf5)"><path fill="#346a48" d="M 490.402344 553.84375 C 490.402344 527.410156 490.402344 500.972656 490.402344 474.546875 L 458.683594 474.546875 L 458.683594 458.6875 L 506.261719 458.6875 C 506.261719 469.265625 506.261719 479.835938 506.261719 490.410156 L 537.984375 490.410156 L 537.984375 506.269531 L 506.261719 506.269531 C 506.261719 506.269531 506.261719 549.890625 506.261719 553.847656 L 522.121094 553.847656 L 522.121094 522.125 L 537.976562 522.125 L 537.976562 553.847656 L 553.835938 553.847656 L 553.835938 442.832031 C 516.832031 442.832031 479.820312 442.832031 442.816406 442.832031 C 442.816406 458.6875 442.816406 474.550781 442.816406 490.410156 L 474.539062 490.410156 L 474.539062 506.269531 L 442.824219 506.269531 C 442.824219 522.125 442.824219 537.992188 442.824219 553.847656 L 490.402344 553.847656 Z M 537.984375 474.546875 L 522.125 474.546875 L 522.125 458.6875 L 537.984375 458.6875 Z M 474.546875 522.125 L 474.546875 537.984375 L 458.6875 537.984375 L 458.6875 522.125 Z M 474.546875 522.125 " fill-opacity="1" fill-rule="evenodd"/></g></g><g clip-path="url(#ed96559cf9)"><g clip-path="url(#69c7d463a1)"><path fill="#346a48" d="M 617.285156 553.847656 C 617.285156 580.28125 617.285156 606.714844 617.285156 633.140625 L 649.007812 633.140625 L 649.007812 649 L 601.425781 649 C 601.425781 638.425781 601.425781 627.855469 601.425781 617.277344 L 569.703125 617.277344 L 569.703125 601.421875 L 601.425781 601.421875 C 601.425781 601.421875 601.425781 557.796875 601.425781 553.839844 L 585.570312 553.839844 L 585.570312 585.5625 L 569.710938 585.5625 L 569.710938 553.839844 L 553.851562 553.839844 L 553.851562 664.859375 C 590.855469 664.859375 627.867188 664.859375 664.871094 664.859375 C 664.871094 649 664.871094 633.136719 664.871094 617.277344 L 633.148438 617.277344 L 633.148438 601.421875 L 664.863281 601.421875 C 664.863281 585.5625 664.863281 569.699219 664.863281 553.839844 L 617.285156 553.839844 Z M 569.703125 633.140625 L 585.5625 633.140625 L 585.5625 649 L 569.703125 649 Z M 633.140625 585.5625 L 633.140625 569.703125 L 649 569.703125 L 649 585.5625 Z M 633.140625 585.5625 " fill-opacity="1" fill-rule="evenodd"/></g></g><g clip-path="url(#101b1753c0)"><g clip-path="url(#6316ed675a)"><path fill="#346a48" d="M 711.941406 775.382812 C 711.941406 748.945312 711.941406 722.511719 711.941406 696.085938 L 680.21875 696.085938 L 680.21875 680.226562 L 727.800781 680.226562 C 727.800781 690.804688 727.800781 701.371094 727.800781 711.949219 L 759.523438 711.949219 L 759.523438 727.808594 L 727.800781 727.808594 C 727.800781 727.808594 727.800781 771.429688 727.800781 775.386719 L 743.660156 775.386719 L 743.660156 743.664062 L 759.515625 743.664062 L 759.515625 775.386719 L 775.375 775.386719 L 775.375 664.367188 C 738.371094 664.367188 701.359375 664.367188 664.355469 664.367188 C 664.355469 680.226562 664.355469 696.089844 664.355469 711.949219 L 696.078125 711.949219 L 696.078125 727.808594 L 664.363281 727.808594 C 664.363281 743.664062 664.363281 759.527344 664.363281 775.386719 L 711.941406 775.386719 Z M 759.523438 696.085938 L 743.664062 696.085938 L 743.664062 680.226562 L 759.523438 680.226562 Z M 696.085938 743.664062 L 696.085938 759.523438 L 680.226562 759.523438 L 680.226562 743.664062 Z M 696.085938 743.664062 " fill-opacity="1" fill-rule="evenodd"/></g></g><g clip-path="url(#c53b5c1a49)"><g clip-path="url(#b9770dd358)"><path fill="#346a48" d="M 711.941406 553.84375 C 711.941406 527.410156 711.941406 500.972656 711.941406 474.546875 L 680.21875 474.546875 L 680.21875 458.6875 L 727.800781 458.6875 C 727.800781 469.265625 727.800781 479.835938 727.800781 490.410156 L 759.523438 490.410156 L 759.523438 506.269531 L 727.800781 506.269531 C 727.800781 506.269531 727.800781 549.890625 727.800781 553.847656 L 743.660156 553.847656 L 743.660156 522.125 L 759.515625 522.125 L 759.515625 553.847656 L 775.375 553.847656 L 775.375 442.832031 C 738.371094 442.832031 701.359375 442.832031 664.355469 442.832031 C 664.355469 458.6875 664.355469 474.550781 664.355469 490.410156 L 696.078125 490.410156 L 696.078125 506.269531 L 664.363281 506.269531 C 664.363281 522.125 664.363281 537.992188 664.363281 553.847656 L 711.941406 553.847656 Z M 759.523438 474.546875 L 743.664062 474.546875 L 743.664062 458.6875 L 759.523438 458.6875 Z M 696.085938 522.125 L 696.085938 537.984375 L 680.226562 537.984375 L 680.226562 522.125 Z M 696.085938 522.125 " fill-opacity="1" fill-rule="evenodd"/></g></g><g clip-path="url(#766c51bee1)"><g clip-path="url(#a6556a5c48)"><path fill="#346a48" d="M 838.824219 553.847656 C 838.824219 580.28125 838.824219 606.714844 838.824219 633.140625 L 870.546875 633.140625 L 870.546875 649 L 822.964844 649 C 822.964844 638.425781 822.964844 627.855469 822.964844 617.277344 L 791.242188 617.277344 L 791.242188 601.421875 L 822.964844 601.421875 C 822.964844 601.421875 822.964844 557.796875 822.964844 553.839844 L 807.105469 553.839844 L 807.105469 585.5625 L 791.25 585.5625 L 791.25 553.839844 L 775.390625 553.839844 L 775.390625 664.859375 C 812.394531 664.859375 849.40625 664.859375 886.410156 664.859375 C 886.410156 649 886.410156 633.136719 886.410156 617.277344 L 854.6875 617.277344 L 854.6875 601.421875 L 886.402344 601.421875 C 886.402344 585.5625 886.402344 569.699219 886.402344 553.839844 L 838.824219 553.839844 Z M 791.242188 633.140625 L 807.101562 633.140625 L 807.101562 649 L 791.242188 649 Z M 854.679688 585.5625 L 854.679688 569.703125 L 870.539062 569.703125 L 870.539062 585.5625 Z M 854.679688 585.5625 " fill-opacity="1" fill-rule="evenodd"/></g></g><g clip-path="url(#2f6567026b)"><g clip-path="url(#a58292a3ff)"><path fill="#346a48" d="M 933.480469 775.382812 C 933.480469 748.945312 933.480469 722.511719 933.480469 696.085938 L 901.757812 696.085938 L 901.757812 680.226562 L 949.339844 680.226562 C 949.339844 690.804688 949.339844 701.371094 949.339844 711.949219 L 981.0625 711.949219 L 981.0625 727.808594 L 949.339844 727.808594 C 949.339844 727.808594 949.339844 771.429688 949.339844 775.386719 L 965.195312 775.386719 L 965.195312 743.664062 L 981.054688 743.664062 L 981.054688 775.386719 L 996.914062 775.386719 L 996.914062 664.367188 C 959.910156 664.367188 922.898438 664.367188 885.894531 664.367188 C 885.894531 680.226562 885.894531 696.089844 885.894531 711.949219 L 917.617188 711.949219 L 917.617188 727.808594 L 885.902344 727.808594 C 885.902344 743.664062 885.902344 759.527344 885.902344 775.386719 L 933.480469 775.386719 Z M 981.0625 696.085938 L 965.203125 696.085938 L 965.203125 680.226562 L 981.0625 680.226562 Z M 917.625 743.664062 L 917.625 759.523438 L 901.765625 759.523438 L 901.765625 743.664062 Z M 917.625 743.664062 " fill-opacity="1" fill-rule="evenodd"/></g></g><g clip-path="url(#b1a721c390)"><g clip-path="url(#d3a0a37101)"><path fill="#346a48" d="M 933.480469 553.84375 C 933.480469 527.410156 933.480469 500.972656 933.480469 474.546875 L 901.757812 474.546875 L 901.757812 458.6875 L 949.339844 458.6875 C 949.339844 469.265625 949.339844 479.835938 949.339844 490.410156 L 981.0625 490.410156 L 981.0625 506.269531 L 949.339844 506.269531 C 949.339844 506.269531 949.339844 549.890625 949.339844 553.847656 L 965.195312 553.847656 L 965.195312 522.125 L 981.054688 522.125 L 981.054688 553.847656 L 996.914062 553.847656 L 996.914062 442.832031 C 959.910156 442.832031 922.898438 442.832031 885.894531 442.832031 C 885.894531 458.6875 885.894531 474.550781 885.894531 490.410156 L 917.617188 490.410156 L 917.617188 506.269531 L 885.902344 506.269531 C 885.902344 522.125 885.902344 537.992188 885.902344 553.847656 L 933.480469 553.847656 Z M 981.0625 474.546875 L 965.203125 474.546875 L 965.203125 458.6875 L 981.0625 458.6875 Z M 917.625 522.125 L 917.625 537.984375 L 901.765625 537.984375 L 901.765625 522.125 Z M 917.625 522.125 " fill-opacity="1" fill-rule="evenodd"/></g></g><g clip-path="url(#09216074c1)"><g clip-path="url(#a09280307c)"><path fill="#346a48" d="M 1060.359375 553.847656 C 1060.359375 580.28125 1060.359375 606.714844 1060.359375 633.140625 L 1092.082031 633.140625 L 1092.082031 649 L 1044.503906 649 C 1044.503906 638.425781 1044.503906 627.855469 1044.503906 617.277344 L 1012.78125 617.277344 L 1012.78125 601.421875 L 1044.503906 601.421875 C 1044.503906 601.421875 1044.503906 557.796875 1044.503906 553.839844 L 1028.644531 553.839844 L 1028.644531 585.5625 L 1012.789062 585.5625 L 1012.789062 553.839844 L 996.929688 553.839844 L 996.929688 664.859375 C 1033.933594 664.859375 1070.945312 664.859375 1107.949219 664.859375 C 1107.949219 649 1107.949219 633.136719 1107.949219 617.277344 L 1076.226562 617.277344 L 1076.226562 601.421875 L 1107.941406 601.421875 C 1107.941406 585.5625 1107.941406 569.699219 1107.941406 553.839844 L 1060.359375 553.839844 Z M 1012.78125 633.140625 L 1028.640625 633.140625 L 1028.640625 649 L 1012.78125 649 Z M 1076.21875 585.5625 L 1076.21875 569.703125 L 1092.078125 569.703125 L 1092.078125 585.5625 Z M 1076.21875 585.5625 " fill-opacity="1" fill-rule="evenodd"/></g></g><g clip-path="url(#00195b33b5)"><g clip-path="url(#45defcc298)"><path fill="#346a48" d="M 1155.019531 775.382812 C 1155.019531 748.945312 1155.019531 722.511719 1155.019531 696.085938 L 1123.296875 696.085938 L 1123.296875 680.226562 L 1170.878906 680.226562 C 1170.878906 690.804688 1170.878906 701.371094 1170.878906 711.949219 L 1202.601562 711.949219 L 1202.601562 727.808594 L 1170.878906 727.808594 C 1170.878906 727.808594 1170.878906 771.429688 1170.878906 775.386719 L 1186.734375 775.386719 L 1186.734375 743.664062 L 1202.59375 743.664062 L 1202.59375 775.386719 L 1218.453125 775.386719 L 1218.453125 664.367188 C 1181.449219 664.367188 1144.4375 664.367188 1107.433594 664.367188 C 1107.433594 680.226562 1107.433594 696.089844 1107.433594 711.949219 L 1139.15625 711.949219 L 1139.15625 727.808594 L 1107.4375 727.808594 C 1107.4375 743.664062 1107.4375 759.527344 1107.4375 775.386719 L 1155.019531 775.386719 Z M 1202.601562 696.085938 L 1186.742188 696.085938 L 1186.742188 680.226562 L 1202.601562 680.226562 Z M 1139.160156 743.664062 L 1139.160156 759.523438 L 1123.304688 759.523438 L 1123.304688 743.664062 Z M 1139.160156 743.664062 " fill-opacity="1" fill-rule="evenodd"/></g></g><g clip-path="url(#291a9d8014)"><g clip-path="url(#b0c0cc2de6)"><path fill="#346a48" d="M 1155.019531 553.84375 C 1155.019531 527.410156 1155.019531 500.972656 1155.019531 474.546875 L 1123.296875 474.546875 L 1123.296875 458.6875 L 1170.878906 458.6875 C 1170.878906 469.265625 1170.878906 479.835938 1170.878906 490.410156 L 1202.601562 490.410156 L 1202.601562 506.269531 L 1170.878906 506.269531 C 1170.878906 506.269531 1170.878906 549.890625 1170.878906 553.847656 L 1186.734375 553.847656 L 1186.734375 522.125 L 1202.59375 522.125 L 1202.59375 553.847656 L 1218.453125 553.847656 L 1218.453125 442.832031 C 1181.449219 442.832031 1144.4375 442.832031 1107.433594 442.832031 C 1107.433594 458.6875 1107.433594 474.550781 1107.433594 490.410156 L 1139.15625 490.410156 L 1139.15625 506.269531 L 1107.4375 506.269531 C 1107.4375 522.125 1107.4375 537.992188 1107.4375 553.847656 L 1155.019531 553.847656 Z M 1202.601562 474.546875 L 1186.742188 474.546875 L 1186.742188 458.6875 L 1202.601562 458.6875 Z M 1139.160156 522.125 L 1139.160156 537.984375 L 1123.304688 537.984375 L 1123.304688 522.125 Z M 1139.160156 522.125 " fill-opacity="1" fill-rule="evenodd"/></g></g><g clip-path="url(#a9d57919a5)"><g clip-path="url(#c508c70fef)"><path fill="#346a48" d="M 1281.898438 553.847656 C 1281.898438 580.28125 1281.898438 606.714844 1281.898438 633.140625 L 1313.621094 633.140625 L 1313.621094 649 L 1266.042969 649 C 1266.042969 638.425781 1266.042969 627.855469 1266.042969 617.277344 L 1234.320312 617.277344 L 1234.320312 601.421875 L 1266.042969 601.421875 C 1266.042969 601.421875 1266.042969 557.796875 1266.042969 553.839844 L 1250.183594 553.839844 L 1250.183594 585.5625 L 1234.324219 585.5625 L 1234.324219 553.839844 L 1218.46875 553.839844 L 1218.46875 664.859375 C 1255.472656 664.859375 1292.480469 664.859375 1329.484375 664.859375 C 1329.484375 649 1329.484375 633.136719 1329.484375 617.277344 L 1297.765625 617.277344 L 1297.765625 601.421875 L 1329.480469 601.421875 C 1329.480469 585.5625 1329.480469 569.699219 1329.480469 553.839844 L 1281.898438 553.839844 Z M 1234.320312 633.140625 L 1250.175781 633.140625 L 1250.175781 649 L 1234.320312 649 Z M 1297.757812 585.5625 L 1297.757812 569.703125 L 1313.617188 569.703125 L 1313.617188 585.5625 Z M 1297.757812 585.5625 " fill-opacity="1" fill-rule="evenodd"/></g></g><g clip-path="url(#1929c487fe)"><g clip-path="url(#0fd46ed001)"><path fill="#346a48" d="M 1376.558594 775.382812 C 1376.558594 748.945312 1376.558594 722.511719 1376.558594 696.085938 L 1344.835938 696.085938 L 1344.835938 680.226562 L 1392.417969 680.226562 C 1392.417969 690.804688 1392.417969 701.371094 1392.417969 711.949219 L 1424.136719 711.949219 L 1424.136719 727.808594 L 1392.417969 727.808594 C 1392.417969 727.808594 1392.417969 771.429688 1392.417969 775.386719 L 1408.273438 775.386719 L 1408.273438 743.664062 L 1424.132812 743.664062 L 1424.132812 775.386719 L 1439.992188 775.386719 L 1439.992188 664.367188 C 1402.984375 664.367188 1365.976562 664.367188 1328.972656 664.367188 C 1328.972656 680.226562 1328.972656 696.089844 1328.972656 711.949219 L 1360.695312 711.949219 L 1360.695312 727.808594 L 1328.976562 727.808594 C 1328.976562 743.664062 1328.976562 759.527344 1328.976562 775.386719 L 1376.558594 775.386719 Z M 1424.136719 696.085938 L 1408.28125 696.085938 L 1408.28125 680.226562 L 1424.136719 680.226562 Z M 1360.699219 743.664062 L 1360.699219 759.523438 L 1344.84375 759.523438 L 1344.84375 743.664062 Z M 1360.699219 743.664062 " fill-opacity="1" fill-rule="evenodd"/></g></g><g clip-path="url(#1b882f7175)"><g clip-path="url(#8ca72a6c00)"><path fill="#346a48" d="M 1376.558594 553.84375 C 1376.558594 527.410156 1376.558594 500.972656 1376.558594 474.546875 L 1344.835938 474.546875 L 1344.835938 458.6875 L 1392.417969 458.6875 C 1392.417969 469.265625 1392.417969 479.835938 1392.417969 490.410156 L 1424.136719 490.410156 L 1424.136719 506.269531 L 1392.417969 506.269531 C 1392.417969 506.269531 1392.417969 549.890625 1392.417969 553.847656 L 1408.273438 553.847656 L 1408.273438 522.125 L 1424.132812 522.125 L 1424.132812 553.847656 L 1439.992188 553.847656 L 1439.992188 442.832031 C 1402.984375 442.832031 1365.976562 442.832031 1328.972656 442.832031 C 1328.972656 458.6875 1328.972656 474.550781 1328.972656 490.410156 L 1360.695312 490.410156 L 1360.695312 506.269531 L 1328.976562 506.269531 C 1328.976562 522.125 1328.976562 537.992188 1328.976562 553.847656 L 1376.558594 553.847656 Z M 1424.136719 474.546875 L 1408.28125 474.546875 L 1408.28125 458.6875 L 1424.136719 458.6875 Z M 1360.699219 522.125 L 1360.699219 537.984375 L 1344.84375 537.984375 L 1344.84375 522.125 Z M 1360.699219 522.125 " fill-opacity="1" fill-rule="evenodd"/></g></g><g clip-path="url(#5a85f802ae)"><g clip-path="url(#8c530598d7)"><path fill="#346a48" d="M 47.328125 332.304688 C 47.328125 305.871094 47.328125 279.4375 47.328125 253.007812 L 15.605469 253.007812 L 15.605469 237.148438 L 63.183594 237.148438 C 63.183594 247.726562 63.183594 258.296875 63.183594 268.871094 L 94.90625 268.871094 L 94.90625 284.730469 L 63.183594 284.730469 C 63.183594 284.730469 63.183594 328.351562 63.183594 332.308594 L 79.042969 332.308594 L 79.042969 300.589844 L 94.902344 300.589844 L 94.902344 332.308594 L 110.757812 332.308594 L 110.757812 221.292969 C 73.753906 221.292969 36.746094 221.292969 -0.257812 221.292969 C -0.257812 237.148438 -0.257812 253.015625 -0.257812 268.871094 L 31.464844 268.871094 L 31.464844 284.730469 L -0.253906 284.730469 C -0.253906 300.589844 -0.253906 316.453125 -0.253906 332.308594 L 47.328125 332.308594 Z M 94.90625 253.007812 L 79.050781 253.007812 L 79.050781 237.148438 L 94.90625 237.148438 Z M 31.46875 300.589844 L 31.46875 316.445312 L 15.613281 316.445312 L 15.613281 300.589844 Z M 31.46875 300.589844 " fill-opacity="1" fill-rule="evenodd"/></g></g><g clip-path="url(#7fa3c26d81)"><g clip-path="url(#34fef5942f)"><path fill="#346a48" d="M 174.207031 332.308594 C 174.207031 358.742188 174.207031 385.175781 174.207031 411.605469 L 205.929688 411.605469 L 205.929688 427.460938 L 158.347656 427.460938 C 158.347656 416.886719 158.347656 406.316406 158.347656 395.738281 L 126.628906 395.738281 L 126.628906 379.882812 L 158.347656 379.882812 C 158.347656 379.882812 158.347656 336.257812 158.347656 332.300781 L 142.492188 332.300781 L 142.492188 364.023438 L 126.632812 364.023438 L 126.632812 332.300781 L 110.777344 332.300781 L 110.777344 443.320312 C 147.78125 443.320312 184.789062 443.320312 221.792969 443.320312 C 221.792969 427.460938 221.792969 411.597656 221.792969 395.738281 L 190.070312 395.738281 L 190.070312 379.882812 L 221.789062 379.882812 C 221.789062 364.023438 221.789062 348.160156 221.789062 332.300781 L 174.207031 332.300781 Z M 126.628906 411.605469 L 142.484375 411.605469 L 142.484375 427.460938 L 126.628906 427.460938 Z M 190.066406 364.023438 L 190.066406 348.164062 L 205.921875 348.164062 L 205.921875 364.023438 Z M 190.066406 364.023438 " fill-opacity="1" fill-rule="evenodd"/></g></g><g clip-path="url(#f29ef50a27)"><g clip-path="url(#fd682b2a60)"><path fill="#346a48" d="M 174.207031 110.769531 C 174.207031 137.203125 174.207031 163.636719 174.207031 190.066406 L 205.929688 190.066406 L 205.929688 205.921875 L 158.347656 205.921875 C 158.347656 195.347656 158.347656 184.777344 158.347656 174.203125 L 126.628906 174.203125 L 126.628906 158.34375 L 158.347656 158.34375 C 158.347656 158.34375 158.347656 114.71875 158.347656 110.761719 L 142.492188 110.761719 L 142.492188 142.484375 L 126.632812 142.484375 L 126.632812 110.761719 L 110.777344 110.761719 L 110.777344 221.78125 C 147.78125 221.78125 184.789062 221.78125 221.792969 221.78125 C 221.792969 205.921875 221.792969 190.058594 221.792969 174.203125 L 190.070312 174.203125 L 190.070312 158.34375 L 221.789062 158.34375 C 221.789062 142.484375 221.789062 126.621094 221.789062 110.761719 L 174.207031 110.761719 Z M 126.628906 190.066406 L 142.484375 190.066406 L 142.484375 205.921875 L 126.628906 205.921875 Z M 190.066406 142.484375 L 190.066406 126.628906 L 205.921875 126.628906 L 205.921875 142.484375 Z M 190.066406 142.484375 " fill-opacity="1" fill-rule="evenodd"/></g></g><g clip-path="url(#648aac3d1f)"><g clip-path="url(#48c39aa6db)"><path fill="#346a48" d="M 268.867188 332.304688 C 268.867188 305.871094 268.867188 279.4375 268.867188 253.007812 L 237.144531 253.007812 L 237.144531 237.148438 L 284.722656 237.148438 C 284.722656 247.726562 284.722656 258.296875 284.722656 268.871094 L 316.445312 268.871094 L 316.445312 284.730469 L 284.722656 284.730469 C 284.722656 284.730469 284.722656 328.351562 284.722656 332.308594 L 300.582031 332.308594 L 300.582031 300.589844 L 316.441406 300.589844 L 316.441406 332.308594 L 332.296875 332.308594 L 332.296875 221.292969 C 295.292969 221.292969 258.285156 221.292969 221.28125 221.292969 C 221.28125 237.148438 221.28125 253.015625 221.28125 268.871094 L 253 268.871094 L 253 284.730469 L 221.285156 284.730469 C 221.285156 300.589844 221.285156 316.453125 221.285156 332.308594 L 268.867188 332.308594 Z M 316.445312 253.007812 L 300.589844 253.007812 L 300.589844 237.148438 L 316.445312 237.148438 Z M 253.007812 300.589844 L 253.007812 316.445312 L 237.148438 316.445312 L 237.148438 300.589844 Z M 253.007812 300.589844 " fill-opacity="1" fill-rule="evenodd"/></g></g><g clip-path="url(#1fd896a739)"><g clip-path="url(#eb9e7a225a)"><path fill="#346a48" d="M 395.746094 332.308594 C 395.746094 358.742188 395.746094 385.175781 395.746094 411.605469 L 427.46875 411.605469 L 427.46875 427.460938 L 379.886719 427.460938 C 379.886719 416.886719 379.886719 406.316406 379.886719 395.738281 L 348.164062 395.738281 L 348.164062 379.882812 L 379.886719 379.882812 C 379.886719 379.882812 379.886719 336.257812 379.886719 332.300781 L 364.03125 332.300781 L 364.03125 364.023438 L 348.171875 364.023438 L 348.171875 332.300781 L 332.3125 332.300781 L 332.3125 443.320312 C 369.316406 443.320312 406.328125 443.320312 443.332031 443.320312 C 443.332031 427.460938 443.332031 411.597656 443.332031 395.738281 L 411.609375 395.738281 L 411.609375 379.882812 L 443.328125 379.882812 C 443.328125 364.023438 443.328125 348.160156 443.328125 332.300781 L 395.746094 332.300781 Z M 348.164062 411.605469 L 364.023438 411.605469 L 364.023438 427.460938 L 348.164062 427.460938 Z M 411.605469 364.023438 L 411.605469 348.164062 L 427.460938 348.164062 L 427.460938 364.023438 Z M 411.605469 364.023438 " fill-opacity="1" fill-rule="evenodd"/></g></g><g clip-path="url(#cb56c296db)"><g clip-path="url(#8310846fd4)"><path fill="#346a48" d="M 395.746094 110.769531 C 395.746094 137.203125 395.746094 163.636719 395.746094 190.066406 L 427.46875 190.066406 L 427.46875 205.921875 L 379.886719 205.921875 C 379.886719 195.347656 379.886719 184.777344 379.886719 174.203125 L 348.164062 174.203125 L 348.164062 158.34375 L 379.886719 158.34375 C 379.886719 158.34375 379.886719 114.71875 379.886719 110.761719 L 364.03125 110.761719 L 364.03125 142.484375 L 348.171875 142.484375 L 348.171875 110.761719 L 332.3125 110.761719 L 332.3125 221.78125 C 369.316406 221.78125 406.328125 221.78125 443.332031 221.78125 C 443.332031 205.921875 443.332031 190.058594 443.332031 174.203125 L 411.609375 174.203125 L 411.609375 158.34375 L 443.328125 158.34375 C 443.328125 142.484375 443.328125 126.621094 443.328125 110.761719 L 395.746094 110.761719 Z M 348.164062 190.066406 L 364.023438 190.066406 L 364.023438 205.921875 L 348.164062 205.921875 Z M 411.605469 142.484375 L 411.605469 126.628906 L 427.460938 126.628906 L 427.460938 142.484375 Z M 411.605469 142.484375 " fill-opacity="1" fill-rule="evenodd"/></g></g><g clip-path="url(#d720c0fdcc)"><g clip-path="url(#1c30c0ba94)"><path fill="#346a48" d="M 490.402344 332.304688 C 490.402344 305.871094 490.402344 279.4375 490.402344 253.007812 L 458.683594 253.007812 L 458.683594 237.148438 L 506.261719 237.148438 C 506.261719 247.726562 506.261719 258.296875 506.261719 268.871094 L 537.984375 268.871094 L 537.984375 284.730469 L 506.261719 284.730469 C 506.261719 284.730469 506.261719 328.351562 506.261719 332.308594 L 522.121094 332.308594 L 522.121094 300.589844 L 537.976562 300.589844 L 537.976562 332.308594 L 553.835938 332.308594 L 553.835938 221.292969 C 516.832031 221.292969 479.820312 221.292969 442.816406 221.292969 C 442.816406 237.148438 442.816406 253.015625 442.816406 268.871094 L 474.539062 268.871094 L 474.539062 284.730469 L 442.824219 284.730469 C 442.824219 300.589844 442.824219 316.453125 442.824219 332.308594 L 490.402344 332.308594 Z M 537.984375 253.007812 L 522.125 253.007812 L 522.125 237.148438 L 537.984375 237.148438 Z M 474.546875 300.589844 L 474.546875 316.445312 L 458.6875 316.445312 L 458.6875 300.589844 Z M 474.546875 300.589844 " fill-opacity="1" fill-rule="evenodd"/></g></g><g clip-path="url(#69d64fcab0)"><g clip-path="url(#dc758e09a2)"><path fill="#346a48" d="M 617.285156 332.308594 C 617.285156 358.742188 617.285156 385.175781 617.285156 411.605469 L 649.007812 411.605469 L 649.007812 427.460938 L 601.425781 427.460938 C 601.425781 416.886719 601.425781 406.316406 601.425781 395.738281 L 569.703125 395.738281 L 569.703125 379.882812 L 601.425781 379.882812 C 601.425781 379.882812 601.425781 336.257812 601.425781 332.300781 L 585.570312 332.300781 L 585.570312 364.023438 L 569.710938 364.023438 L 569.710938 332.300781 L 553.851562 332.300781 L 553.851562 443.320312 C 590.855469 443.320312 627.867188 443.320312 664.871094 443.320312 C 664.871094 427.460938 664.871094 411.597656 664.871094 395.738281 L 633.148438 395.738281 L 633.148438 379.882812 L 664.863281 379.882812 C 664.863281 364.023438 664.863281 348.160156 664.863281 332.300781 L 617.285156 332.300781 Z M 569.703125 411.605469 L 585.5625 411.605469 L 585.5625 427.460938 L 569.703125 427.460938 Z M 633.140625 364.023438 L 633.140625 348.164062 L 649 348.164062 L 649 364.023438 Z M 633.140625 364.023438 " fill-opacity="1" fill-rule="evenodd"/></g></g><g clip-path="url(#ed6783e1ba)"><g clip-path="url(#6837c1107a)"><path fill="#346a48" d="M 617.285156 110.769531 C 617.285156 137.203125 617.285156 163.636719 617.285156 190.066406 L 649.007812 190.066406 L 649.007812 205.921875 L 601.425781 205.921875 C 601.425781 195.347656 601.425781 184.777344 601.425781 174.203125 L 569.703125 174.203125 L 569.703125 158.34375 L 601.425781 158.34375 C 601.425781 158.34375 601.425781 114.71875 601.425781 110.761719 L 585.570312 110.761719 L 585.570312 142.484375 L 569.710938 142.484375 L 569.710938 110.761719 L 553.851562 110.761719 L 553.851562 221.78125 C 590.855469 221.78125 627.867188 221.78125 664.871094 221.78125 C 664.871094 205.921875 664.871094 190.058594 664.871094 174.203125 L 633.148438 174.203125 L 633.148438 158.34375 L 664.863281 158.34375 C 664.863281 142.484375 664.863281 126.621094 664.863281 110.761719 L 617.285156 110.761719 Z M 569.703125 190.066406 L 585.5625 190.066406 L 585.5625 205.921875 L 569.703125 205.921875 Z M 633.140625 142.484375 L 633.140625 126.628906 L 649 126.628906 L 649 142.484375 Z M 633.140625 142.484375 " fill-opacity="1" fill-rule="evenodd"/></g></g><g clip-path="url(#dc69f4c1dc)"><g clip-path="url(#c31d6299f4)"><path fill="#346a48" d="M 711.941406 332.304688 C 711.941406 305.871094 711.941406 279.4375 711.941406 253.007812 L 680.21875 253.007812 L 680.21875 237.148438 L 727.800781 237.148438 C 727.800781 247.726562 727.800781 258.296875 727.800781 268.871094 L 759.523438 268.871094 L 759.523438 284.730469 L 727.800781 284.730469 C 727.800781 284.730469 727.800781 328.351562 727.800781 332.308594 L 743.660156 332.308594 L 743.660156 300.589844 L 759.515625 300.589844 L 759.515625 332.308594 L 775.375 332.308594 L 775.375 221.292969 C 738.371094 221.292969 701.359375 221.292969 664.355469 221.292969 C 664.355469 237.148438 664.355469 253.015625 664.355469 268.871094 L 696.078125 268.871094 L 696.078125 284.730469 L 664.363281 284.730469 C 664.363281 300.589844 664.363281 316.453125 664.363281 332.308594 L 711.941406 332.308594 Z M 759.523438 253.007812 L 743.664062 253.007812 L 743.664062 237.148438 L 759.523438 237.148438 Z M 696.085938 300.589844 L 696.085938 316.445312 L 680.226562 316.445312 L 680.226562 300.589844 Z M 696.085938 300.589844 " fill-opacity="1" fill-rule="evenodd"/></g></g><g clip-path="url(#4b3d1da33b)"><g clip-path="url(#4324a521c6)"><path fill="#346a48" d="M 838.824219 332.308594 C 838.824219 358.742188 838.824219 385.175781 838.824219 411.605469 L 870.546875 411.605469 L 870.546875 427.460938 L 822.964844 427.460938 C 822.964844 416.886719 822.964844 406.316406 822.964844 395.738281 L 791.242188 395.738281 L 791.242188 379.882812 L 822.964844 379.882812 C 822.964844 379.882812 822.964844 336.257812 822.964844 332.300781 L 807.105469 332.300781 L 807.105469 364.023438 L 791.25 364.023438 L 791.25 332.300781 L 775.390625 332.300781 L 775.390625 443.320312 C 812.394531 443.320312 849.40625 443.320312 886.410156 443.320312 C 886.410156 427.460938 886.410156 411.597656 886.410156 395.738281 L 854.6875 395.738281 L 854.6875 379.882812 L 886.402344 379.882812 C 886.402344 364.023438 886.402344 348.160156 886.402344 332.300781 L 838.824219 332.300781 Z M 791.242188 411.605469 L 807.101562 411.605469 L 807.101562 427.460938 L 791.242188 427.460938 Z M 854.679688 364.023438 L 854.679688 348.164062 L 870.539062 348.164062 L 870.539062 364.023438 Z M 854.679688 364.023438 " fill-opacity="1" fill-rule="evenodd"/></g></g><g clip-path="url(#1d4f94fa1b)"><g clip-path="url(#468319c1a8)"><path fill="#346a48" d="M 838.824219 110.769531 C 838.824219 137.203125 838.824219 163.636719 838.824219 190.066406 L 870.546875 190.066406 L 870.546875 205.921875 L 822.964844 205.921875 C 822.964844 195.347656 822.964844 184.777344 822.964844 174.203125 L 791.242188 174.203125 L 791.242188 158.34375 L 822.964844 158.34375 C 822.964844 158.34375 822.964844 114.71875 822.964844 110.761719 L 807.105469 110.761719 L 807.105469 142.484375 L 791.25 142.484375 L 791.25 110.761719 L 775.390625 110.761719 L 775.390625 221.78125 C 812.394531 221.78125 849.40625 221.78125 886.410156 221.78125 C 886.410156 205.921875 886.410156 190.058594 886.410156 174.203125 L 854.6875 174.203125 L 854.6875 158.34375 L 886.402344 158.34375 C 886.402344 142.484375 886.402344 126.621094 886.402344 110.761719 L 838.824219 110.761719 Z M 791.242188 190.066406 L 807.101562 190.066406 L 807.101562 205.921875 L 791.242188 205.921875 Z M 854.679688 142.484375 L 854.679688 126.628906 L 870.539062 126.628906 L 870.539062 142.484375 Z M 854.679688 142.484375 " fill-opacity="1" fill-rule="evenodd"/></g></g><g clip-path="url(#e9d6987358)"><g clip-path="url(#7449fb5c26)"><path fill="#346a48" d="M 933.480469 332.304688 C 933.480469 305.871094 933.480469 279.4375 933.480469 253.007812 L 901.757812 253.007812 L 901.757812 237.148438 L 949.339844 237.148438 C 949.339844 247.726562 949.339844 258.296875 949.339844 268.871094 L 981.0625 268.871094 L 981.0625 284.730469 L 949.339844 284.730469 C 949.339844 284.730469 949.339844 328.351562 949.339844 332.308594 L 965.195312 332.308594 L 965.195312 300.589844 L 981.054688 300.589844 L 981.054688 332.308594 L 996.914062 332.308594 L 996.914062 221.292969 C 959.910156 221.292969 922.898438 221.292969 885.894531 221.292969 C 885.894531 237.148438 885.894531 253.015625 885.894531 268.871094 L 917.617188 268.871094 L 917.617188 284.730469 L 885.902344 284.730469 C 885.902344 300.589844 885.902344 316.453125 885.902344 332.308594 L 933.480469 332.308594 Z M 981.0625 253.007812 L 965.203125 253.007812 L 965.203125 237.148438 L 981.0625 237.148438 Z M 917.625 300.589844 L 917.625 316.445312 L 901.765625 316.445312 L 901.765625 300.589844 Z M 917.625 300.589844 " fill-opacity="1" fill-rule="evenodd"/></g></g><g clip-path="url(#d7efd16cc2)"><g clip-path="url(#e417c45834)"><path fill="#346a48" d="M 1060.359375 332.308594 C 1060.359375 358.742188 1060.359375 385.175781 1060.359375 411.605469 L 1092.082031 411.605469 L 1092.082031 427.460938 L 1044.503906 427.460938 C 1044.503906 416.886719 1044.503906 406.316406 1044.503906 395.738281 L 1012.78125 395.738281 L 1012.78125 379.882812 L 1044.503906 379.882812 C 1044.503906 379.882812 1044.503906 336.257812 1044.503906 332.300781 L 1028.644531 332.300781 L 1028.644531 364.023438 L 1012.789062 364.023438 L 1012.789062 332.300781 L 996.929688 332.300781 L 996.929688 443.320312 C 1033.933594 443.320312 1070.945312 443.320312 1107.949219 443.320312 C 1107.949219 427.460938 1107.949219 411.597656 1107.949219 395.738281 L 1076.226562 395.738281 L 1076.226562 379.882812 L 1107.941406 379.882812 C 1107.941406 364.023438 1107.941406 348.160156 1107.941406 332.300781 L 1060.359375 332.300781 Z M 1012.78125 411.605469 L 1028.640625 411.605469 L 1028.640625 427.460938 L 1012.78125 427.460938 Z M 1076.21875 364.023438 L 1076.21875 348.164062 L 1092.078125 348.164062 L 1092.078125 364.023438 Z M 1076.21875 364.023438 " fill-opacity="1" fill-rule="evenodd"/></g></g><g clip-path="url(#2278ccd43e)"><g clip-path="url(#811bcaa26d)"><path fill="#346a48" d="M 1060.359375 110.769531 C 1060.359375 137.203125 1060.359375 163.636719 1060.359375 190.066406 L 1092.082031 190.066406 L 1092.082031 205.921875 L 1044.503906 205.921875 C 1044.503906 195.347656 1044.503906 184.777344 1044.503906 174.203125 L 1012.78125 174.203125 L 1012.78125 158.34375 L 1044.503906 158.34375 C 1044.503906 158.34375 1044.503906 114.71875 1044.503906 110.761719 L 1028.644531 110.761719 L 1028.644531 142.484375 L 1012.789062 142.484375 L 1012.789062 110.761719 L 996.929688 110.761719 L 996.929688 221.78125 C 1033.933594 221.78125 1070.945312 221.78125 1107.949219 221.78125 C 1107.949219 205.921875 1107.949219 190.058594 1107.949219 174.203125 L 1076.226562 174.203125 L 1076.226562 158.34375 L 1107.941406 158.34375 C 1107.941406 142.484375 1107.941406 126.621094 1107.941406 110.761719 L 1060.359375 110.761719 Z M 1012.78125 190.066406 L 1028.640625 190.066406 L 1028.640625 205.921875 L 1012.78125 205.921875 Z M 1076.21875 142.484375 L 1076.21875 126.628906 L 1092.078125 126.628906 L 1092.078125 142.484375 Z M 1076.21875 142.484375 " fill-opacity="1" fill-rule="evenodd"/></g></g><g clip-path="url(#97e34b9df0)"><g clip-path="url(#b0ccb72f55)"><path fill="#346a48" d="M 1155.019531 332.304688 C 1155.019531 305.871094 1155.019531 279.4375 1155.019531 253.007812 L 1123.296875 253.007812 L 1123.296875 237.148438 L 1170.878906 237.148438 C 1170.878906 247.726562 1170.878906 258.296875 1170.878906 268.871094 L 1202.601562 268.871094 L 1202.601562 284.730469 L 1170.878906 284.730469 C 1170.878906 284.730469 1170.878906 328.351562 1170.878906 332.308594 L 1186.734375 332.308594 L 1186.734375 300.589844 L 1202.59375 300.589844 L 1202.59375 332.308594 L 1218.453125 332.308594 L 1218.453125 221.292969 C 1181.449219 221.292969 1144.4375 221.292969 1107.433594 221.292969 C 1107.433594 237.148438 1107.433594 253.015625 1107.433594 268.871094 L 1139.15625 268.871094 L 1139.15625 284.730469 L 1107.4375 284.730469 C 1107.4375 300.589844 1107.4375 316.453125 1107.4375 332.308594 L 1155.019531 332.308594 Z M 1202.601562 253.007812 L 1186.742188 253.007812 L 1186.742188 237.148438 L 1202.601562 237.148438 Z M 1139.160156 300.589844 L 1139.160156 316.445312 L 1123.304688 316.445312 L 1123.304688 300.589844 Z M 1139.160156 300.589844 " fill-opacity="1" fill-rule="evenodd"/></g></g><g clip-path="url(#4e08acef8b)"><g clip-path="url(#479749bdb3)"><path fill="#346a48" d="M 1281.898438 332.308594 C 1281.898438 358.742188 1281.898438 385.175781 1281.898438 411.605469 L 1313.621094 411.605469 L 1313.621094 427.460938 L 1266.042969 427.460938 C 1266.042969 416.886719 1266.042969 406.316406 1266.042969 395.738281 L 1234.320312 395.738281 L 1234.320312 379.882812 L 1266.042969 379.882812 C 1266.042969 379.882812 1266.042969 336.257812 1266.042969 332.300781 L 1250.183594 332.300781 L 1250.183594 364.023438 L 1234.324219 364.023438 L 1234.324219 332.300781 L 1218.46875 332.300781 L 1218.46875 443.320312 C 1255.472656 443.320312 1292.480469 443.320312 1329.484375 443.320312 C 1329.484375 427.460938 1329.484375 411.597656 1329.484375 395.738281 L 1297.765625 395.738281 L 1297.765625 379.882812 L 1329.480469 379.882812 C 1329.480469 364.023438 1329.480469 348.160156 1329.480469 332.300781 L 1281.898438 332.300781 Z M 1234.320312 411.605469 L 1250.175781 411.605469 L 1250.175781 427.460938 L 1234.320312 427.460938 Z M 1297.757812 364.023438 L 1297.757812 348.164062 L 1313.617188 348.164062 L 1313.617188 364.023438 Z M 1297.757812 364.023438 " fill-opacity="1" fill-rule="evenodd"/></g></g><g clip-path="url(#d27076f470)"><g clip-path="url(#366e8b23f0)"><path fill="#346a48" d="M 1281.898438 110.769531 C 1281.898438 137.203125 1281.898438 163.636719 1281.898438 190.066406 L 1313.621094 190.066406 L 1313.621094 205.921875 L 1266.042969 205.921875 C 1266.042969 195.347656 1266.042969 184.777344 1266.042969 174.203125 L 1234.320312 174.203125 L 1234.320312 158.34375 L 1266.042969 158.34375 C 1266.042969 158.34375 1266.042969 114.71875 1266.042969 110.761719 L 1250.183594 110.761719 L 1250.183594 142.484375 L 1234.324219 142.484375 L 1234.324219 110.761719 L 1218.46875 110.761719 L 1218.46875 221.78125 C 1255.472656 221.78125 1292.480469 221.78125 1329.484375 221.78125 C 1329.484375 205.921875 1329.484375 190.058594 1329.484375 174.203125 L 1297.765625 174.203125 L 1297.765625 158.34375 L 1329.480469 158.34375 C 1329.480469 142.484375 1329.480469 126.621094 1329.480469 110.761719 L 1281.898438 110.761719 Z M 1234.320312 190.066406 L 1250.175781 190.066406 L 1250.175781 205.921875 L 1234.320312 205.921875 Z M 1297.757812 142.484375 L 1297.757812 126.628906 L 1313.617188 126.628906 L 1313.617188 142.484375 Z M 1297.757812 142.484375 " fill-opacity="1" fill-rule="evenodd"/></g></g><g clip-path="url(#e36707261e)"><g clip-path="url(#66c9345968)"><path fill="#346a48" d="M 1376.558594 332.304688 C 1376.558594 305.871094 1376.558594 279.4375 1376.558594 253.007812 L 1344.835938 253.007812 L 1344.835938 237.148438 L 1392.417969 237.148438 C 1392.417969 247.726562 1392.417969 258.296875 1392.417969 268.871094 L 1424.136719 268.871094 L 1424.136719 284.730469 L 1392.417969 284.730469 C 1392.417969 284.730469 1392.417969 328.351562 1392.417969 332.308594 L 1408.273438 332.308594 L 1408.273438 300.589844 L 1424.132812 300.589844 L 1424.132812 332.308594 L 1439.992188 332.308594 L 1439.992188 221.292969 C 1402.984375 221.292969 1365.976562 221.292969 1328.972656 221.292969 C 1328.972656 237.148438 1328.972656 253.015625 1328.972656 268.871094 L 1360.695312 268.871094 L 1360.695312 284.730469 L 1328.976562 284.730469 C 1328.976562 300.589844 1328.976562 316.453125 1328.976562 332.308594 L 1376.558594 332.308594 Z M 1424.136719 253.007812 L 1408.28125 253.007812 L 1408.28125 237.148438 L 1424.136719 237.148438 Z M 1360.699219 300.589844 L 1360.699219 316.445312 L 1344.84375 316.445312 L 1344.84375 300.589844 Z M 1360.699219 300.589844 " fill-opacity="1" fill-rule="evenodd"/></g></g><g clip-path="url(#a5f9accf3a)"><g clip-path="url(#86f39c0ca0)"><path fill="#346a48" d="M 47.328125 110.765625 C 47.328125 84.332031 47.328125 57.898438 47.328125 31.46875 L 15.605469 31.46875 L 15.605469 15.613281 L 63.183594 15.613281 C 63.183594 26.1875 63.183594 36.757812 63.183594 47.332031 L 94.90625 47.332031 L 94.90625 63.191406 L 63.183594 63.191406 C 63.183594 63.191406 63.183594 106.816406 63.183594 110.773438 L 79.042969 110.773438 L 79.042969 79.050781 L 94.902344 79.050781 L 94.902344 110.773438 L 110.757812 110.773438 L 110.757812 -0.246094 C 73.753906 -0.246094 36.746094 -0.246094 -0.257812 -0.246094 C -0.257812 15.613281 -0.257812 31.476562 -0.257812 47.332031 L 31.464844 47.332031 L 31.464844 63.191406 L -0.253906 63.191406 C -0.253906 79.050781 -0.253906 94.914062 -0.253906 110.773438 L 47.328125 110.773438 Z M 94.90625 31.46875 L 79.050781 31.46875 L 79.050781 15.613281 L 94.90625 15.613281 Z M 31.46875 79.050781 L 31.46875 94.90625 L 15.613281 94.90625 L 15.613281 79.050781 Z M 31.46875 79.050781 " fill-opacity="1" fill-rule="evenodd"/></g></g><g clip-path="url(#1242f61613)"><g clip-path="url(#4504d802ba)"><path fill="#346a48" d="M 268.867188 110.765625 C 268.867188 84.332031 268.867188 57.898438 268.867188 31.46875 L 237.144531 31.46875 L 237.144531 15.613281 L 284.722656 15.613281 C 284.722656 26.1875 284.722656 36.757812 284.722656 47.332031 L 316.445312 47.332031 L 316.445312 63.191406 L 284.722656 63.191406 C 284.722656 63.191406 284.722656 106.816406 284.722656 110.773438 L 300.582031 110.773438 L 300.582031 79.050781 L 316.441406 79.050781 L 316.441406 110.773438 L 332.296875 110.773438 L 332.296875 -0.246094 C 295.292969 -0.246094 258.285156 -0.246094 221.28125 -0.246094 C 221.28125 15.613281 221.28125 31.476562 221.28125 47.332031 L 253 47.332031 L 253 63.191406 L 221.285156 63.191406 C 221.285156 79.050781 221.285156 94.914062 221.285156 110.773438 L 268.867188 110.773438 Z M 316.445312 31.46875 L 300.589844 31.46875 L 300.589844 15.613281 L 316.445312 15.613281 Z M 253.007812 79.050781 L 253.007812 94.90625 L 237.148438 94.90625 L 237.148438 79.050781 Z M 253.007812 79.050781 " fill-opacity="1" fill-rule="evenodd"/></g></g><g clip-path="url(#b3c1e4668b)"><g clip-path="url(#10b6c859cc)"><path fill="#346a48" d="M 490.402344 110.765625 C 490.402344 84.332031 490.402344 57.898438 490.402344 31.46875 L 458.683594 31.46875 L 458.683594 15.613281 L 506.261719 15.613281 C 506.261719 26.1875 506.261719 36.757812 506.261719 47.332031 L 537.984375 47.332031 L 537.984375 63.191406 L 506.261719 63.191406 C 506.261719 63.191406 506.261719 106.816406 506.261719 110.773438 L 522.121094 110.773438 L 522.121094 79.050781 L 537.976562 79.050781 L 537.976562 110.773438 L 553.835938 110.773438 L 553.835938 -0.246094 C 516.832031 -0.246094 479.820312 -0.246094 442.816406 -0.246094 C 442.816406 15.613281 442.816406 31.476562 442.816406 47.332031 L 474.539062 47.332031 L 474.539062 63.191406 L 442.824219 63.191406 C 442.824219 79.050781 442.824219 94.914062 442.824219 110.773438 L 490.402344 110.773438 Z M 537.984375 31.46875 L 522.125 31.46875 L 522.125 15.613281 L 537.984375 15.613281 Z M 474.546875 79.050781 L 474.546875 94.90625 L 458.6875 94.90625 L 458.6875 79.050781 Z M 474.546875 79.050781 " fill-opacity="1" fill-rule="evenodd"/></g></g><g clip-path="url(#3f259ab0ec)"><g clip-path="url(#e35a9bc0f2)"><path fill="#346a48" d="M 711.941406 110.765625 C 711.941406 84.332031 711.941406 57.898438 711.941406 31.46875 L 680.21875 31.46875 L 680.21875 15.613281 L 727.800781 15.613281 C 727.800781 26.1875 727.800781 36.757812 727.800781 47.332031 L 759.523438 47.332031 L 759.523438 63.191406 L 727.800781 63.191406 C 727.800781 63.191406 727.800781 106.816406 727.800781 110.773438 L 743.660156 110.773438 L 743.660156 79.050781 L 759.515625 79.050781 L 759.515625 110.773438 L 775.375 110.773438 L 775.375 -0.246094 C 738.371094 -0.246094 701.359375 -0.246094 664.355469 -0.246094 C 664.355469 15.613281 664.355469 31.476562 664.355469 47.332031 L 696.078125 47.332031 L 696.078125 63.191406 L 664.363281 63.191406 C 664.363281 79.050781 664.363281 94.914062 664.363281 110.773438 L 711.941406 110.773438 Z M 759.523438 31.46875 L 743.664062 31.46875 L 743.664062 15.613281 L 759.523438 15.613281 Z M 696.085938 79.050781 L 696.085938 94.90625 L 680.226562 94.90625 L 680.226562 79.050781 Z M 696.085938 79.050781 " fill-opacity="1" fill-rule="evenodd"/></g></g><g clip-path="url(#85034e137c)"><g clip-path="url(#a52ef04f96)"><path fill="#346a48" d="M 933.480469 110.765625 C 933.480469 84.332031 933.480469 57.898438 933.480469 31.46875 L 901.757812 31.46875 L 901.757812 15.613281 L 949.339844 15.613281 C 949.339844 26.1875 949.339844 36.757812 949.339844 47.332031 L 981.0625 47.332031 L 981.0625 63.191406 L 949.339844 63.191406 C 949.339844 63.191406 949.339844 106.816406 949.339844 110.773438 L 965.195312 110.773438 L 965.195312 79.050781 L 981.054688 79.050781 L 981.054688 110.773438 L 996.914062 110.773438 L 996.914062 -0.246094 C 959.910156 -0.246094 922.898438 -0.246094 885.894531 -0.246094 C 885.894531 15.613281 885.894531 31.476562 885.894531 47.332031 L 917.617188 47.332031 L 917.617188 63.191406 L 885.902344 63.191406 C 885.902344 79.050781 885.902344 94.914062 885.902344 110.773438 L 933.480469 110.773438 Z M 981.0625 31.46875 L 965.203125 31.46875 L 965.203125 15.613281 L 981.0625 15.613281 Z M 917.625 79.050781 L 917.625 94.90625 L 901.765625 94.90625 L 901.765625 79.050781 Z M 917.625 79.050781 " fill-opacity="1" fill-rule="evenodd"/></g></g><g clip-path="url(#344a6f9e74)"><g clip-path="url(#f431daeeea)"><path fill="#346a48" d="M 1155.019531 110.765625 C 1155.019531 84.332031 1155.019531 57.898438 1155.019531 31.46875 L 1123.296875 31.46875 L 1123.296875 15.613281 L 1170.878906 15.613281 C 1170.878906 26.1875 1170.878906 36.757812 1170.878906 47.332031 L 1202.601562 47.332031 L 1202.601562 63.191406 L 1170.878906 63.191406 C 1170.878906 63.191406 1170.878906 106.816406 1170.878906 110.773438 L 1186.734375 110.773438 L 1186.734375 79.050781 L 1202.59375 79.050781 L 1202.59375 110.773438 L 1218.453125 110.773438 L 1218.453125 -0.246094 C 1181.449219 -0.246094 1144.4375 -0.246094 1107.433594 -0.246094 C 1107.433594 15.613281 1107.433594 31.476562 1107.433594 47.332031 L 1139.15625 47.332031 L 1139.15625 63.191406 L 1107.4375 63.191406 C 1107.4375 79.050781 1107.4375 94.914062 1107.4375 110.773438 L 1155.019531 110.773438 Z M 1202.601562 31.46875 L 1186.742188 31.46875 L 1186.742188 15.613281 L 1202.601562 15.613281 Z M 1139.160156 79.050781 L 1139.160156 94.90625 L 1123.304688 94.90625 L 1123.304688 79.050781 Z M 1139.160156 79.050781 " fill-opacity="1" fill-rule="evenodd"/></g></g><g clip-path="url(#4d2a05d4c7)"><g clip-path="url(#71de97d5f8)"><path fill="#346a48" d="M 1376.558594 110.765625 C 1376.558594 84.332031 1376.558594 57.898438 1376.558594 31.46875 L 1344.835938 31.46875 L 1344.835938 15.613281 L 1392.417969 15.613281 C 1392.417969 26.1875 1392.417969 36.757812 1392.417969 47.332031 L 1424.136719 47.332031 L 1424.136719 63.191406 L 1392.417969 63.191406 C 1392.417969 63.191406 1392.417969 106.816406 1392.417969 110.773438 L 1408.273438 110.773438 L 1408.273438 79.050781 L 1424.132812 79.050781 L 1424.132812 110.773438 L 1439.992188 110.773438 L 1439.992188 -0.246094 C 1402.984375 -0.246094 1365.976562 -0.246094 1328.972656 -0.246094 C 1328.972656 15.613281 1328.972656 31.476562 1328.972656 47.332031 L 1360.695312 47.332031 L 1360.695312 63.191406 L 1328.976562 63.191406 C 1328.976562 79.050781 1328.976562 94.914062 1328.976562 110.773438 L 1376.558594 110.773438 Z M 1424.136719 31.46875 L 1408.28125 31.46875 L 1408.28125 15.613281 L 1424.136719 15.613281 Z M 1360.699219 79.050781 L 1360.699219 94.90625 L 1344.84375 94.90625 L 1344.84375 79.050781 Z M 1360.699219 79.050781 " fill-opacity="1" fill-rule="evenodd"/></g></g><g clip-path="url(#fe8efaa63d)"><path fill="#346a48" d="M -55.890625 775.382812 L 1460.957031 775.382812 L 1460.957031 1018.382812 L -55.890625 1018.382812 Z M -55.890625 775.382812 " fill-opacity="1" fill-rule="nonzero"/></g><g clip-path="url(#d80727fd21)"><path fill="#346a48" d="M -146.992188 759.480469 L 35.363281 759.480469 L 35.363281 883.96875 L -146.992188 883.96875 Z M -146.992188 759.480469 " fill-opacity="1" fill-rule="nonzero"/></g><g clip-path="url(#c66e8b6e99)"><path fill="#346a48" d="M 1404.460938 759.480469 L 1586.816406 759.480469 L 1586.816406 883.96875 L 1404.460938 883.96875 Z M 1404.460938 759.480469 " fill-opacity="1" fill-rule="nonzero"/></g><g clip-path="url(#c0760053bc)"><path fill="#346a48" d="M 1422.644531 -108.449219 L 1605 -108.449219 L 1605 16.039062 L 1422.644531 16.039062 Z M 1422.644531 -108.449219 " fill-opacity="1" fill-rule="nonzero"/></g><g clip-path="url(#1f12b0ea7e)"><path fill="#346a48" d="M -166.714844 -108.449219 L 15.640625 -108.449219 L 15.640625 16.039062 L -166.714844 16.039062 Z M -166.714844 -108.449219 " fill-opacity="1" fill-rule="nonzero"/></g><g clip-path="url(#8bc91dfcdd)"><path fill="#346a48" d="M -48.679688 768.171875 L 1576.734375 768.171875 L 1576.734375 1017.632812 L -48.679688 1017.632812 Z M -48.679688 768.171875 " fill-opacity="1" fill-rule="nonzero"/></g></svg>